<?xml version="1.0" encoding="UTF-8"?>
<!-- Generator: Adobe Illustrator 26.0.3, SVG Export Plug-In . SVG Version: 6.00 Build 0)  -->
<svg xmlns="http://www.w3.org/2000/svg" xmlns:xlink="http://www.w3.org/1999/xlink" version="1.1" id="Слой_1" x="0px" y="0px" viewBox="0 0 149.5 149.5" style="enable-background:new 0 0 149.5 149.5;" xml:space="preserve">
<style type="text/css">
	.st0{fill:#FFECB6;}
	.st1{fill:#272556;}
</style>
<g>
	<circle class="st0" cx="74.7" cy="74.7" r="74.7"></circle>
	<path class="st1" d="M97.1,59.1c-1.1,2.7-5.8,12.5-7.4,14.6c0,0,3.5-6.4,4.4-15c0.1-1.7-0.4-3.4-2.4-4.2c-1-0.4-1.2-0.1-1-0.4   C94.3,50,99.4,53.8,97.1,59.1 M101.2,55c-1-5.8-5.3-9.2-9.8-7.8c-2.8,0.8-10.8,8.7-33,0c-4.6-1.8-8.5,1.2-9.6,5   c-0.6,2.4-0.8,5-0.7,7.5c0.2,4.5,2.7,8.3,4.7,12c1.7,2.9,3.3,5.9,3.6,9.5c0.4,3.8,0.6,7.5,1.1,11.3c0.4,2.4,0.8,4.9,1.5,7.3   c0.4,1.5,1.3,2.8,3,3c1.8,0.1,2.9-1,3.8-2.4c0.6-1.2,1.2-2.5,1.6-3.8c0.7-2.5,1.3-5.1,2.1-7.6c0.6-1.8,1.2-3.8,2.2-5.5   c1.6-2.9,4.4-2.9,6.1,0c0.7,1.2,1.3,2.7,1.7,4.1c1,3.3,1.8,6.7,2.8,10c0.5,1.3,1.1,2.7,1.9,3.8c1.8,2.2,4.5,1.8,5.7-0.6   c0.5-1,1-2.1,1.1-3c0.6-4,1.1-8.1,1.5-12.3c0.4-4.7,1.2-9.3,4-13.5c1-1.5,1.7-3,2.5-4.6c1.6-3,2.5-6.3,2.7-10.2   C101.4,56.7,101.3,55.8,101.2,55"></path>
</g>
</svg>
