<?xml version="1.0" encoding="UTF-8"?>
<svg xmlns="http://www.w3.org/2000/svg" width="356" height="191" viewBox="0 0 356 191" fill="none">
  <g clip-path="url(#clip0_8_5)">
    <path d="M275.41 106.88H155.09V103.66C155.82 103.66 156.54 103.72 157.31 103.72H275.31L275.37 106.72L275.41 106.88Z" fill="#171247"></path>
    <path d="M2.87985 127.82C28.3299 126.13 53.9399 128.43 79.3899 129.03C106.39 129.67 133.33 129.57 160.29 129.03C205.87 128.18 251.45 125.71 297.05 125.91C315.44 125.99 334.05 126.4 352.22 129.27C356 129.86 357.63 124.08 353.82 123.48C317.93 117.83 280.82 119.73 244.65 120.73C193.5 122.16 142.36 124.04 91.1799 123.23C61.8199 122.76 32.1799 119.84 2.87985 121.78C-0.950145 122.04 -0.980145 128.04 2.87985 127.78V127.82Z" fill="#191346"></path>
    <path d="M247.51 87.5001C247.71 87.6101 247.94 87.7101 248.18 87.8201C248.89 88.1401 249.77 88.5401 249.81 88.9401C250.61 92.9401 251.81 99.5801 251.62 100.11L251.56 100.27C251.02 101.77 250.36 103.63 249.72 103.75H249.49C248.596 103.947 247.685 104.064 246.77 104.1H246.41H246.07C245.814 104.069 245.564 103.998 245.33 103.89L245.23 103.74C245.068 103.503 244.959 103.233 244.91 102.95C244.875 102.829 244.875 102.701 244.91 102.58C245.01 102.31 245.34 102.11 245.76 101.86L245.9 101.77C246.336 101.568 246.711 101.256 246.99 100.865C247.269 100.474 247.441 100.018 247.49 99.5402C247.52 98.0165 247.294 96.4987 246.82 95.0502C246.73 94.7602 246.64 94.4501 246.55 94.1301C246.1 92.5401 245.55 90.7402 244.37 90.3102C239.95 88.7402 237.09 86.7701 235.83 85.3901C236.38 81.2901 237.92 79.8601 239.3 78.5801C240.201 77.8547 240.925 76.9351 241.42 75.8901C241.95 79.3601 243.4 85.3201 247.51 87.5001Z" fill="white" stroke="#171247" stroke-width="0.75" stroke-miterlimit="10"></path>
    <path d="M184.95 33.1899C184.95 32.9599 185.01 32.73 185.06 32.5C185.084 32.3543 185.15 32.2188 185.25 32.11C185.302 32.0811 185.36 32.0659 185.42 32.0659C185.479 32.0659 185.538 32.0811 185.59 32.11C185.746 32.1978 185.885 32.3129 186 32.45C186.297 32.8035 186.543 33.1975 186.73 33.62C186.832 33.8349 186.922 34.0553 187 34.28C187.031 34.3686 187.058 34.4587 187.08 34.55V34.67C187.086 34.6929 187.086 34.7171 187.08 34.74C187.076 34.8066 187.076 34.8733 187.08 34.9399L187.02 35.05C186.251 34.7587 185.458 34.5345 184.65 34.38C184.808 34.0004 184.91 33.5993 184.95 33.1899Z" fill="white" stroke="#171247" stroke-width="0.5" stroke-miterlimit="10"></path>
    <path d="M172.08 40.6801C171.26 39.0801 170.73 37.42 171.17 36.58C171.218 36.5227 171.28 36.478 171.35 36.45C171.75 36.3177 172.18 36.2981 172.591 36.3934C173.002 36.4886 173.379 36.695 173.68 36.9901C173.854 37.1215 173.988 37.2986 174.067 37.5015C174.147 37.7045 174.168 37.9255 174.13 38.1401C174.083 38.2792 174.003 38.4047 173.897 38.5058C173.791 38.6069 173.661 38.6804 173.52 38.72H173.47C173.35 38.72 173.34 38.78 173.22 38.57C173.1 38.36 173.03 38.23 172.8 38.22C172.57 38.21 172.36 38.3601 172.04 38.7701C171.909 39.0272 171.841 39.3116 171.841 39.6001C171.841 39.8885 171.909 40.173 172.04 40.4301C172.058 40.5126 172.072 40.5961 172.08 40.6801Z" fill="#A42022"></path>
    <path d="M172.85 37.3199C173.284 37.3386 173.713 37.4092 174.13 37.53C174.151 37.3764 174.132 37.22 174.074 37.0762C174.016 36.9323 173.922 36.806 173.8 36.7099L173.65 36.54C173.347 36.2451 172.968 36.0389 172.556 35.9437C172.143 35.8485 171.713 35.868 171.31 36C171.243 36.0315 171.181 36.0757 171.13 36.13C170.967 36.5325 170.925 36.9741 171.01 37.4C171.617 37.2886 172.236 37.2616 172.85 37.3199Z" fill="#A42022"></path>
    <path d="M245.73 44.6898C243.64 42.7598 240.07 41.0399 237.05 41.2799C239.05 42.2799 242.65 44.7898 243.89 48.2098C244.232 49.135 244.367 50.124 244.286 51.1071C244.205 52.0901 243.909 53.0434 243.42 53.8999C242.275 55.8649 240.404 57.3015 238.21 57.8999C238.2 57.9226 238.183 57.9414 238.161 57.954C238.14 57.9665 238.115 57.9721 238.09 57.9698H238.03C236.61 57.2455 235.084 56.7495 233.51 56.4999C230.15 56.0697 226.749 56.0697 223.39 56.4999C221.47 56.6699 219.49 56.8399 217.51 56.8499C212.175 56.6277 206.96 55.1949 202.26 52.6599C201.722 52.3323 201.208 51.968 200.72 51.5698C200.72 51.5698 200.72 51.5699 200.72 51.4999C198.782 49.4919 197.232 47.1422 196.15 44.5698C195.96 44.1198 195.78 43.6598 195.6 43.2198C195.042 41.7772 194.401 40.3682 193.68 38.9999C193.215 38.1427 192.636 37.3522 191.96 36.6499C191.965 36.6797 191.965 36.7101 191.96 36.7399C192.053 38.0272 191.657 39.3024 190.85 40.3099C190.75 40.4399 190.64 40.2199 190.72 40.1199C191.161 39.5631 191.478 38.9188 191.65 38.2299C191.876 37.1125 191.779 35.954 191.37 34.8899C191.246 34.4108 191.032 33.9595 190.74 33.5599L190.65 33.4598C190.65 33.4598 190.65 33.5199 190.65 33.5599C190.709 34.001 190.742 34.445 190.75 34.8899C190.757 35.8753 190.632 36.8574 190.38 37.8099C190.287 38.1945 190.143 38.5646 189.95 38.9099C189.821 39.169 189.605 39.3743 189.34 39.4899C189.29 39.4899 189.2 39.4899 189.16 39.4899C189.12 39.4899 189.16 39.3899 189.23 39.3699C189.275 39.3622 189.317 39.3414 189.35 39.3099C189.572 39.1364 189.742 38.9044 189.84 38.6399C190.003 38.2707 190.128 37.8852 190.21 37.4899C190.415 36.5644 190.505 35.6174 190.48 34.6699C190.476 34.2633 190.433 33.858 190.35 33.4598C190.306 33.2175 190.221 32.9843 190.1 32.7699L190.03 32.6699L189.96 32.6099H189.9C189.851 32.6516 189.808 32.6985 189.77 32.7499C189.508 33.087 189.274 33.4448 189.07 33.8198L188.29 35.2098V35.2899L188.17 35.4799C188.024 35.7465 187.857 36.0007 187.67 36.2399C187.65 36.2657 187.624 36.2859 187.594 36.2982C187.565 36.3105 187.532 36.3146 187.5 36.3099C187.5 36.3099 187.39 36.3098 187.43 36.2198L187.58 36.0199C187.71 35.8199 187.84 35.6199 187.96 35.4099C185.54 34.5399 183.61 34.4098 182.64 35.0698L182.34 35.2799C180.42 36.6099 180.13 36.8199 179.56 37.2799H179.48C179.07 37.2799 175.79 36.7599 174.82 36.6199C174.406 36.5549 173.989 36.5181 173.57 36.5099C173.57 36.5899 173.57 36.7199 173.57 36.8699C173.62 37.3799 173.66 37.6399 173.51 37.8099C173.427 37.9067 173.322 37.9812 173.203 38.0266C173.084 38.072 172.956 38.0869 172.83 38.0698C172.75 38.0651 172.674 38.0373 172.61 37.9899C172.53 37.9199 172.61 37.7698 172.49 37.6998H172.44C172.377 37.7114 172.319 37.7391 172.27 37.7799C172.27 37.7799 172.13 37.9099 172.04 38.3999C172.04 38.5899 171.99 38.7399 171.89 38.7799C171.79 38.8199 171.82 38.7799 171.8 38.7799C171.725 39.5681 171.938 40.3569 172.4 40.9999C173.8 43.0999 177.78 43.8999 177.81 43.9099H177.89C177.89 44.9099 175.52 45.7699 172.49 45.7999C173.03 47.0799 174.81 47.0099 176.4 46.9199C177.211 46.7867 178.042 46.8554 178.82 47.1199C179.51 47.4399 179.62 49.7099 179.71 53.4099C179.77 55.9899 180.03 63.1999 180.56 63.6799H180.64C180.704 64.0188 180.791 64.3529 180.9 64.6799C181.77 67.1399 182.22 68.7999 182.59 70.1299C182.844 71.3019 183.244 72.4374 183.78 73.5099C184.92 75.8306 186.596 77.8463 188.67 79.3899C188.51 77.7199 188.34 76.3899 188.21 75.7799C188.206 75.7628 188.205 75.745 188.207 75.7275C188.21 75.7101 188.216 75.6933 188.226 75.6783C188.235 75.6634 188.247 75.6506 188.262 75.6405C188.276 75.6304 188.293 75.6234 188.31 75.6199C188.346 75.614 188.382 75.6221 188.412 75.6426C188.442 75.6631 188.463 75.6944 188.47 75.7299C189 78.2899 189.97 90.0299 189.1 94.1299C189.1 94.3699 188.98 94.6799 188.91 95.0299C188.6 96.5099 188.13 98.7399 187.91 99.7399C187.74 100.45 186.91 100.67 186.15 100.88C185.611 100.966 185.102 101.186 184.67 101.52C184.551 101.643 184.453 101.785 184.38 101.94C184.3 102.13 184.22 102.33 184.15 102.52C184.08 102.71 184.07 102.79 184.03 102.92C183.917 103.296 183.893 103.693 183.96 104.08L184.67 104.17H184.94H185.01C187.22 104.45 189.5 104.74 190.44 103.39C190.55 103.24 190.92 102.62 191.35 101.91C191.9 100.99 192.53 99.9099 192.84 99.4899C193.74 98.1499 195.53 89.6698 195.65 88.3198C195.923 86.11 196.402 83.9307 197.08 81.8099C197.07 81.7808 197.07 81.749 197.08 81.7198C197.78 79.3498 198.47 77.4499 198.49 77.4099C198.496 77.3933 198.504 77.3779 198.516 77.3647C198.528 77.3516 198.542 77.3411 198.558 77.3336C198.574 77.3261 198.591 77.3219 198.609 77.3213C198.626 77.3207 198.644 77.3235 198.66 77.3298C198.694 77.3432 198.722 77.3697 198.737 77.4034C198.752 77.4371 198.753 77.4754 198.74 77.5099C198.74 77.5099 198.05 79.4099 197.35 81.7499C197.676 81.8567 198.011 81.937 198.35 81.9899C198.358 81.9664 198.373 81.9458 198.393 81.9299C198.412 81.9141 198.435 81.9037 198.46 81.8999C198.496 81.897 198.531 81.9077 198.559 81.9301C198.587 81.9524 198.605 81.9845 198.61 82.0199C201.9 82.5199 208.92 82.1899 213.36 80.2999C216.535 79.0317 219.944 78.4522 223.36 78.5999C223.354 78.018 223.391 77.4364 223.47 76.8599C223.627 75.6619 223.864 74.476 224.18 73.3099C224.632 71.7129 224.893 70.0682 224.96 68.4099C224.96 68.392 224.964 68.3741 224.971 68.3577C224.978 68.3412 224.988 68.3264 225.001 68.3142C225.015 68.302 225.03 68.2927 225.047 68.2867C225.064 68.2808 225.082 68.2785 225.1 68.2799C225.135 68.2824 225.168 68.2982 225.193 68.3242C225.217 68.3502 225.23 68.3845 225.23 68.4199C225.164 70.1111 224.902 71.789 224.45 73.4199C224.131 74.5751 223.893 75.7512 223.74 76.9398C223.11 81.8598 225.36 83.9999 227.74 86.2699C229.48 87.9299 231.27 89.6399 232.06 92.5199C232.19 92.9999 230.46 95.7199 229.71 96.8699C228.712 98.4928 227.578 100.028 226.32 101.46C225.985 101.647 225.601 101.727 225.22 101.69C224.687 101.689 224.158 101.77 223.65 101.93C223.376 102.02 223.128 102.177 222.929 102.387C222.73 102.596 222.586 102.851 222.51 103.13C222.45 103.27 222.4 103.4 222.33 103.53C222.3 103.668 222.3 103.811 222.33 103.95L222.38 104.02L222.63 104.51C222.792 104.645 222.999 104.712 223.21 104.7H223.69H223.97H225.23C226.101 104.784 226.979 104.784 227.85 104.7C228.94 104.12 230.46 101.89 231.58 100.25C232.014 99.5701 232.492 98.9188 233.01 98.2999C233.75 97.5599 234.56 96.8098 235.36 96.0798C236.16 95.3498 236.73 94.8099 237.36 94.1799C237.49 94.0527 237.578 93.8885 237.612 93.7097C237.646 93.5309 237.624 93.346 237.55 93.1799C236.764 91.4342 236.348 89.5444 236.33 87.6299C236.33 86.8199 236.41 86.0899 236.5 85.4299V85.1499C236.6 83.8333 236.965 82.5504 237.574 81.3784C238.182 80.2064 239.021 79.1695 240.04 78.3298C241.052 77.5425 241.822 76.4853 242.26 75.2799C242.33 75.0599 242.39 74.8099 242.45 74.5499C242.515 74.2194 242.561 73.8855 242.59 73.5499C242.87 70.2799 241.86 65.8699 240.97 62.7399H241.08C242.97 62.5585 244.79 61.9314 246.39 60.9099C247.331 60.2106 248.102 59.3078 248.646 58.2689C249.19 57.23 249.492 56.0819 249.53 54.9099C249.749 53.0274 249.518 51.1198 248.858 49.3434C248.197 47.567 247.125 45.9722 245.73 44.6898Z" fill="white" stroke="#171247" stroke-miterlimit="10"></path>
    <path d="M193.75 103.87L193.04 103.79C192.974 103.403 192.997 103.006 193.11 102.63C193.116 102.607 193.116 102.583 193.11 102.56C193.25 102.297 193.348 102.013 193.4 101.72C193.478 101.542 193.587 101.38 193.72 101.24C194.152 100.906 194.661 100.685 195.2 100.6C195.98 100.39 196.79 100.17 196.96 99.4598C197.02 99.2198 197.1 98.9099 197.2 98.5499C197.659 97.0024 197.993 95.4206 198.2 93.8198C198.2 92.0398 197.91 85.4199 197.64 82.3799C198.758 82.523 199.884 82.5898 201.01 82.5798C201.67 82.5798 202.37 82.5798 203.09 82.5798L204.15 82.4999C204.219 84.8351 204.152 87.1724 203.95 89.4999C203.84 90.8099 202.82 97.9798 201.95 99.3398C201.64 99.7998 201.01 100.85 200.46 101.76C200.03 102.47 199.66 103.09 199.55 103.24C198.61 104.59 196.33 104.3 194.12 104.02H194.05L193.75 103.87Z" fill="white" stroke="#191346" stroke-width="0.75" stroke-miterlimit="10"></path>
    <path d="M184.95 33.1899C184.95 32.9599 185.01 32.73 185.06 32.5C185.084 32.3543 185.15 32.2188 185.25 32.11C185.302 32.0811 185.36 32.0659 185.42 32.0659C185.479 32.0659 185.538 32.0811 185.59 32.11C185.746 32.1978 185.885 32.3129 186 32.45C186.297 32.8035 186.543 33.1975 186.73 33.62C186.832 33.8349 186.922 34.0553 187 34.28C187.031 34.3686 187.058 34.4587 187.08 34.55V34.67C187.086 34.6929 187.086 34.7171 187.08 34.74C187.076 34.8066 187.076 34.8733 187.08 34.9399L187.02 35.05C186.251 34.7587 185.458 34.5345 184.65 34.38C184.808 34.0004 184.91 33.5993 184.95 33.1899Z" fill="white" stroke="#171247" stroke-width="0.5" stroke-miterlimit="10"></path>
    <path d="M165.3 43.3301C165.325 43.3852 165.359 43.4358 165.4 43.4801L165.53 43.6201C165.577 43.6657 165.631 43.7029 165.69 43.7301L165.76 43.9001C165.714 43.8795 165.673 43.8487 165.64 43.8102L165.45 43.6101C165.402 43.5697 165.364 43.5182 165.34 43.4601C165.317 43.4204 165.303 43.3759 165.3 43.3301Z" fill="#AEDFEC"></path>
    <path d="M167 43.1399L166.88 43.25L166.81 43.06L166.93 42.95L167 43.1399Z" fill="#AEDFEC"></path>
    <path d="M166.82 43.3002L166.24 43.8401C166.174 43.9022 166.09 43.9409 166 43.9501L165.94 43.7802C166.049 43.771 166.151 43.7252 166.23 43.6501L166.76 43.1201L166.82 43.3002Z" fill="#AEDFEC"></path>
    <path d="M165.87 43.77L165.93 43.95H165.83L165.77 43.79L165.87 43.77Z" fill="#AEDFEC"></path>
    <path d="M167.25 43.2L166.96 43.5L166.56 43.9C166.44 44.0346 166.293 44.1434 166.13 44.22C166.016 44.2709 165.894 44.3015 165.77 44.3101C165.724 44.3054 165.677 44.3054 165.63 44.3101L165.44 44.5L164.6 45.33L163.3 46.62L161.7 48.2L159.97 49.91L158.28 51.58L156.78 53.0601L155.66 54.17L155.07 54.75C154.95 54.8838 154.788 54.9722 154.61 55C154.475 55.012 154.34 54.9909 154.215 54.9386C154.091 54.8863 153.981 54.8043 153.895 54.6998C153.809 54.5954 153.75 54.4715 153.723 54.3391C153.696 54.2067 153.702 54.0696 153.74 53.9399C153.865 53.737 154.028 53.5605 154.22 53.42L155.22 52.58L156.65 51.33L158.36 49.83L160.2 48.21L161.97 46.66L163.51 45.3L164.64 44.3L165.19 43.8199C165.224 43.7756 165.254 43.7289 165.28 43.6801L165.35 43.54C165.378 43.5844 165.411 43.6247 165.45 43.66L165.65 43.87C165.743 43.9616 165.869 44.0129 166 44.0129C166.131 44.0129 166.256 43.9616 166.35 43.87L167.23 43.05C167.268 43.0208 167.299 42.9831 167.32 42.9399C167.371 42.801 167.371 42.6489 167.32 42.51C167.362 42.5593 167.394 42.6166 167.413 42.6785C167.432 42.7403 167.439 42.8055 167.432 42.87C167.426 42.9345 167.406 42.9969 167.375 43.0536C167.344 43.1103 167.301 43.1601 167.25 43.2Z" fill="#171247"></path>
    <path d="M167.03 42.13C167.092 42.1851 167.134 42.2588 167.15 42.34V42.41C167.147 42.4839 167.119 42.5546 167.07 42.61L166.18 43.5C166.119 43.5533 166.045 43.5889 165.966 43.603C165.887 43.6171 165.805 43.6091 165.73 43.58L165.61 43.49L165.48 43.35C165.402 43.2657 165.359 43.1549 165.36 43.04C165.345 42.9776 165.345 42.9124 165.36 42.85C165.374 42.9334 165.407 43.0124 165.457 43.0802C165.508 43.148 165.574 43.2028 165.65 43.24C165.731 43.2776 165.82 43.2971 165.91 43.2971C166 43.2971 166.088 43.2776 166.17 43.24C166.434 43.1056 166.653 42.8971 166.8 42.64C166.803 42.6201 166.803 42.5999 166.8 42.58C166.885 42.4127 166.93 42.2278 166.93 42.04L167.03 42.13Z" fill="#F9F1EB"></path>
    <path d="M166.76 41.72C166.804 41.8573 166.818 42.0027 166.801 42.146C166.784 42.2893 166.736 42.4271 166.66 42.55C166.525 42.7947 166.319 42.9932 166.07 43.12C166.003 43.1527 165.93 43.1697 165.855 43.1697C165.781 43.1697 165.707 43.1527 165.64 43.12C165.578 43.0904 165.523 43.0471 165.48 42.9934C165.437 42.9398 165.406 42.8772 165.39 42.8101C165.356 42.706 165.356 42.594 165.39 42.49C165.39 42.4 165.52 42.33 165.7 42.26L165.84 42.1899C165.802 42.253 165.755 42.3103 165.7 42.36C165.8 42.2735 165.881 42.1682 165.94 42.05C165.971 42.0005 165.995 41.9465 166.01 41.89C166.056 41.7823 166.083 41.6672 166.09 41.55C166.091 41.376 166.061 41.2031 166 41.04C166.176 41.0748 166.34 41.1562 166.473 41.2759C166.607 41.3955 166.706 41.5489 166.76 41.72Z" fill="#F8A781"></path>
    <path d="M165.3 43.3301C165.325 43.3852 165.359 43.4358 165.4 43.4801L165.53 43.6201C165.577 43.6657 165.631 43.7029 165.69 43.7301L165.76 43.9001C165.714 43.8795 165.673 43.8487 165.64 43.8102L165.45 43.6101C165.402 43.5697 165.364 43.5182 165.34 43.4601C165.317 43.4204 165.303 43.3759 165.3 43.3301Z" fill="#F9F1EB"></path>
    <path d="M167 43.1399L166.88 43.25L166.81 43.06L166.93 42.95L167 43.1399Z" fill="#F9F1EB"></path>
    <path d="M166.82 43.3002L166.24 43.8401C166.174 43.9022 166.09 43.9409 166 43.9501L165.94 43.7802C166.049 43.771 166.151 43.7252 166.23 43.6501L166.76 43.1201L166.82 43.3002Z" fill="#F9F1EB"></path>
    <path d="M165.87 43.77L165.93 43.95H165.83L165.77 43.79L165.87 43.77Z" fill="#F9F1EB"></path>
    <path d="M153.72 54.4999C153.925 54.5314 154.134 54.4888 154.31 54.3799C154.593 54.2384 154.858 54.0638 155.1 53.8599C155.23 53.7499 155.36 53.6199 155.48 53.4999L156.16 52.8198C156.61 52.3698 157.05 51.9098 157.49 51.4498C158.4 50.5098 159.34 49.6198 160.29 48.7198C161.24 47.8198 162.2 46.9099 163.16 46.0199L163.89 45.3499L164.6 44.6998L164.92 44.3699L165.08 44.1799C165.127 44.1122 165.17 44.042 165.21 43.9698C165.258 43.8819 165.319 43.8011 165.39 43.7299C165.351 43.6946 165.318 43.6542 165.29 43.6099L165.22 43.7499C165.193 43.7988 165.163 43.8456 165.13 43.8899L164.58 44.3699L163.45 45.3699L161.91 46.7299L160.14 48.2799L158.3 49.8999L156.59 51.3999L155.16 52.6499L154.16 53.4899C153.968 53.6303 153.805 53.807 153.68 54.0099C153.654 54.0902 153.644 54.1748 153.651 54.2589C153.658 54.343 153.681 54.4249 153.72 54.4999Z" fill="#171247"></path>
    <path d="M167.27 43.0101C167.249 43.0533 167.218 43.0909 167.18 43.1201L166.3 43.9401C166.229 44.0071 166.14 44.0516 166.044 44.0676C165.948 44.0837 165.849 44.0706 165.76 44.0302L165.6 44.1602C165.18 44.5202 164.73 44.8701 164.33 45.2601L163.01 46.5001C162.1 47.3401 161.19 48.1601 160.31 49.0201C159.87 49.4501 159.44 49.8801 159.02 50.3301C158.6 50.7801 158.19 51.2501 157.77 51.7101L156.49 53.0701C156.2 53.3601 155.91 53.6601 155.6 53.9401C155.297 54.2199 154.962 54.4618 154.6 54.6602C154.4 54.7764 154.179 54.8544 153.95 54.8901C154.114 55.0195 154.322 55.0805 154.53 55.0602C154.708 55.0323 154.87 54.944 154.99 54.8102L155.58 54.2301L156.7 53.1201L158.2 51.6401L159.89 49.9701L161.62 48.2601L163.22 46.6802L164.52 45.3901L165.36 44.5602L165.55 44.3701C165.597 44.3654 165.644 44.3654 165.69 44.3701C165.815 44.3615 165.937 44.3311 166.05 44.2802C166.214 44.2035 166.36 44.0946 166.48 43.9601L166.88 43.5602L167.17 43.2601C167.243 43.1735 167.284 43.0636 167.284 42.9501C167.284 42.8366 167.243 42.7268 167.17 42.6401C167.241 42.7501 167.276 42.8794 167.27 43.0101Z" fill="#171247"></path>
    <path d="M165.39 42.6C165.419 42.6127 165.449 42.6193 165.48 42.6193C165.511 42.6193 165.542 42.6127 165.57 42.6C165.708 42.5695 165.835 42.5041 165.94 42.41C165.987 42.3813 166.028 42.344 166.06 42.3L166.25 42.03C166.377 41.8538 166.453 41.6464 166.47 41.4301V41.3199C166.34 41.192 166.178 41.1022 166 41.0601C166.061 41.2232 166.091 41.3959 166.09 41.5699C166.084 41.6871 166.057 41.8023 166.01 41.91C165.995 41.9665 165.971 42.0204 165.94 42.0699C165.882 42.1881 165.8 42.2935 165.7 42.38C165.755 42.3303 165.802 42.273 165.84 42.21L165.7 42.28C165.52 42.35 165.43 42.42 165.39 42.51C165.382 42.5394 165.382 42.5706 165.39 42.6Z" fill="#F8A781"></path>
    <path d="M166.71 42.0901C166.605 42.2902 166.477 42.4781 166.33 42.6501C166.201 42.7906 166.034 42.8912 165.85 42.9401C165.692 42.9645 165.531 42.9364 165.39 42.8601C165.406 42.922 165.436 42.9793 165.478 43.0278C165.519 43.0764 165.571 43.1148 165.63 43.1401C165.697 43.1728 165.771 43.1898 165.845 43.1898C165.92 43.1898 165.993 43.1728 166.06 43.1401C166.309 43.0133 166.515 42.8147 166.65 42.5701C166.767 42.3785 166.817 42.1532 166.79 41.9302L166.71 42.0901Z" fill="#F8A781"></path>
    <path d="M147.77 56.7499C148.08 56.4854 148.358 56.1868 148.6 55.8599C149.487 54.6928 150.464 53.5962 151.52 52.5798C151.9 52.2498 152.24 51.8698 152.63 51.5798C153.101 51.153 153.667 50.8446 154.28 50.6799C154.973 50.5182 155.644 50.2765 156.28 49.9598C156.442 49.8899 156.599 49.8097 156.75 49.7198C156.836 49.6563 156.93 49.6058 157.03 49.5698C157.11 49.5698 157.17 49.5699 157.21 49.6799C157.297 49.9785 157.272 50.2983 157.14 50.5798V50.6499C157.018 50.9554 156.842 51.2364 156.62 51.4799C156.521 51.5875 156.414 51.6878 156.3 51.7799L155.93 52.0299C155.89 52.0461 155.855 52.0739 155.83 52.1099H155.68C155.45 52.1099 155.21 52.1099 154.98 52.1099C154.58 52.1099 154.21 52.3799 153.81 52.3099C153.776 52.3014 153.74 52.3024 153.707 52.313C153.673 52.3236 153.643 52.3433 153.62 52.3699C153.612 52.3764 153.605 52.3848 153.601 52.3943C153.596 52.4038 153.594 52.4143 153.594 52.4249C153.594 52.4355 153.596 52.4459 153.601 52.4554C153.605 52.465 153.612 52.4733 153.62 52.4799C153.959 52.5227 154.303 52.4779 154.62 52.3499C154.989 52.3048 155.362 52.3048 155.73 52.3499H156.12H157.04H157.91H158.56C158.729 52.3392 158.895 52.3889 159.03 52.4899C159.248 52.6902 159.407 52.946 159.49 53.2299C159.512 53.2767 159.524 53.328 159.524 53.3799C159.524 53.4318 159.512 53.483 159.49 53.5299C159.411 53.6719 159.313 53.803 159.2 53.9199C159.086 54.055 158.947 54.167 158.79 54.2499L158.61 54.3198H158.51C158.414 54.3146 158.317 54.3146 158.22 54.3198H158H157.62C157.279 54.3583 156.944 54.4356 156.62 54.5499C156.62 54.5499 156.5 54.6099 156.52 54.6699C156.54 54.7299 156.63 54.7299 156.67 54.6699C156.994 54.5596 157.33 54.4857 157.67 54.4498H158.03H158.23H158.48C158.577 54.4595 158.674 54.4595 158.77 54.4498C158.983 54.5651 159.146 54.7534 159.23 54.9799C159.285 55.1957 159.256 55.424 159.15 55.6199C159.041 55.8503 158.884 56.0549 158.69 56.2198C158.591 56.311 158.48 56.3883 158.36 56.4498C158.213 56.5162 158.058 56.5665 157.9 56.5999C157.542 56.731 157.192 56.8813 156.85 57.0499C156.72 57.1099 156.85 57.3599 156.97 57.2899C157.311 57.1228 157.662 56.9758 158.02 56.8499L158.23 56.7899C158.285 57.1847 158.215 57.5867 158.03 57.9398C158.032 57.9631 158.032 57.9866 158.03 58.0099C157.825 58.2699 157.575 58.4903 157.29 58.6599C157.171 58.7332 157.063 58.8243 156.97 58.9299C156.956 58.9425 156.945 58.958 156.937 58.9753C156.929 58.9927 156.926 59.0116 156.926 59.0305C156.927 59.0495 156.931 59.0681 156.94 59.0851C156.948 59.1021 156.96 59.1171 156.975 59.1289C156.99 59.1408 157.007 59.1492 157.025 59.1537C157.044 59.1582 157.063 59.1585 157.082 59.1548C157.1 59.1511 157.118 59.1434 157.133 59.1322C157.148 59.121 157.161 59.1065 157.17 59.0898C157.248 59.0004 157.339 58.923 157.44 58.8599L157.83 58.5798C157.969 58.4625 158.097 58.3319 158.21 58.1898C158.272 58.3759 158.285 58.5747 158.248 58.7672C158.211 58.9597 158.126 59.1397 158 59.2899C157.89 59.4599 157.76 59.6199 157.64 59.7799C157.503 59.9985 157.352 60.2089 157.19 60.4099C157.042 60.6018 156.845 60.7503 156.62 60.8398L155.94 61.1099L154.4 61.6399C153.19 62.0299 151.95 62.3799 150.7 62.6399C150.362 62.7001 150.029 62.7803 149.7 62.8799L148.95 63.1599L148.18 63.4498C148.115 62.7072 148.005 61.9692 147.85 61.2399C147.691 60.3951 147.45 59.5678 147.13 58.7699C147 58.4484 146.84 58.1403 146.65 57.8499C146.572 57.7365 146.485 57.6295 146.39 57.5299C146.875 57.3162 147.337 57.0549 147.77 56.7499Z" fill="#FAB689" stroke="#171247" stroke-width="0.5" stroke-miterlimit="10"></path>
    <path d="M139.37 52.3298C139.281 49.6354 138.929 46.9561 138.32 44.3298C137.9 42.2198 137.39 39.5799 136.76 35.6099C137.131 35.6947 137.51 35.735 137.89 35.7299C138.053 35.7402 138.217 35.7402 138.38 35.7299C138.69 37.7299 139.03 39.6699 139.38 41.6199C139.64 43.0099 139.92 44.3899 140.19 45.7799C140.39 46.8499 140.58 47.9299 140.71 49.0099C140.863 50.2271 140.937 51.4531 140.93 52.6799C140.912 53.7925 140.788 54.9007 140.56 55.9899C140.35 56.9899 140.08 58.0699 139.87 59.1099V59.1699L139.19 59.3599L138.25 59.6199C138.37 59.0199 138.51 58.4499 138.63 57.8899C139.132 56.0796 139.381 54.2084 139.37 52.3298Z" fill="#ECE7E5" stroke="#171247" stroke-miterlimit="10"></path>
    <path d="M142.71 46.5798C142.681 46.5507 142.658 46.5169 142.64 46.4799C142.57 46.3431 142.529 46.1933 142.52 46.0399C142.485 45.8818 142.485 45.7181 142.52 45.5599C142.533 45.5026 142.557 45.4483 142.59 45.3999C142.554 45.7973 142.595 46.1977 142.71 46.5798Z" fill="#E0E0D2" stroke="#171247" stroke-miterlimit="10"></path>
    <path d="M142.6 45.1399C142.5 45.2018 142.425 45.2976 142.39 45.4099C142.312 45.6068 142.278 45.8185 142.29 46.0299C142.289 46.2425 142.33 46.4531 142.41 46.6499C142.46 46.7699 142.55 46.8999 142.68 46.8999C142.736 47.0626 142.825 47.2122 142.94 47.3399C142.924 47.416 142.893 47.4882 142.848 47.5518C142.803 47.6154 142.746 47.6692 142.68 47.7099C142.611 47.7291 142.539 47.7291 142.47 47.7099C142.34 47.6951 142.217 47.6468 142.112 47.5696C142.006 47.4925 141.923 47.3891 141.87 47.2699C141.69 46.9079 141.591 46.5109 141.58 46.1066C141.57 45.7024 141.649 45.3007 141.81 44.93C141.95 44.63 142.19 44.3399 142.5 44.3899C142.497 44.6099 142.527 44.8291 142.59 45.04C142.59 45.04 142.61 45.1199 142.6 45.1399Z" fill="#212059" stroke="#171247" stroke-miterlimit="10"></path>
    <path d="M143.08 45.2099C143.08 44.9999 143.27 44.4199 143.56 44.5699C143.712 44.6837 143.822 44.846 143.87 45.03C143.965 45.3069 144.016 45.5972 144.02 45.89C144.032 46.1519 144.009 46.4144 143.95 46.67C143.916 46.8513 143.841 47.0224 143.73 47.17C143.49 47.42 143.26 46.9799 143.18 46.7599C143.011 46.261 142.976 45.7264 143.08 45.2099Z" fill="#212059" stroke="#171247" stroke-miterlimit="10"></path>
    <path d="M140.3 30.63L140.38 30.8101C140.46 31.0001 140.54 31.22 140.63 31.46C141.68 34.26 143.53 40.39 143.11 44.01C143.11 44.11 143.11 44.31 143.11 44.41C142.986 44.5161 142.885 44.6452 142.81 44.79C142.802 44.6735 142.802 44.5565 142.81 44.4399C143.01 40.7299 141.68 35.34 140.46 32.16L140.28 31.73C140.026 30.9678 139.632 30.2592 139.12 29.64C139.12 29.55 139.18 29.46 139.22 29.37L139.34 29.03C139.709 29.5327 140.03 30.0683 140.3 30.63Z" fill="#212059" stroke="#171247" stroke-miterlimit="10"></path>
    <path d="M147.18 27.8601C147.201 27.8226 147.228 27.7888 147.26 27.7601L147.19 27.6201C147.122 27.4689 147.068 27.3116 147.03 27.1501C146.949 26.7724 146.912 26.3864 146.92 26.0001C146.933 25.2777 147.047 24.5607 147.26 23.8701L146.85 24.3301C146.49 24.7201 146.11 25.0901 145.72 25.4401C145.33 25.7901 144.82 26.1901 144.37 26.5701C144.08 26.8101 143.81 27.0602 143.52 27.3102C143.66 27.418 143.815 27.5054 143.98 27.5701C144.263 27.6965 144.557 27.7937 144.86 27.8601C145.407 27.9896 145.968 28.0501 146.53 28.0402C146.725 28.0455 146.92 28.0253 147.11 27.9801C147.129 27.938 147.153 27.8979 147.18 27.8601Z" fill="#D62E31" stroke="#171247" stroke-miterlimit="10"></path>
    <path d="M151.39 12.5001C151.299 12.0097 151.028 11.571 150.63 11.2701C150.015 10.9325 149.331 10.7408 148.63 10.7101C146.983 10.4108 145.414 9.7779 144.02 8.8501C143.631 8.60022 143.26 8.3229 142.91 8.02014L141.91 8.22009C141.876 8.22739 141.84 8.22238 141.809 8.20593C141.778 8.18948 141.754 8.16267 141.74 8.13013L141.67 7.89014C141.389 8.03281 141.126 8.21095 140.89 8.42017C140.502 8.77834 140.165 9.18894 139.89 9.64014C139.56 10.1601 139.27 10.7001 138.97 11.2401C138.67 11.7801 138.21 12.5502 137.78 13.1702C137.238 13.9583 136.633 14.7007 135.97 15.3901C135.333 16.1047 134.856 16.9467 134.57 17.8601C134.21 19.0671 134.21 20.3531 134.57 21.5602C134.716 22.1039 134.934 22.6253 135.22 23.1101C135.29 23.2101 135.14 23.3001 135.05 23.2601L134.88 23.1802C134.6 23.0302 134.31 22.8801 134.03 22.7101C134.17 23.0101 134.31 23.3101 134.47 23.6001C135.255 25.1917 136.458 26.5399 137.95 27.5001C138.323 27.7285 138.715 27.9257 139.12 28.0901L139.46 28.2201H139.6C139.841 28.3109 140.093 28.3681 140.35 28.3901C140.761 28.4223 141.175 28.3782 141.57 28.2601C142.008 28.0957 142.416 27.8627 142.78 27.5701L143.25 27.1802L143.32 27.1201L143.85 26.6501C144.23 26.3101 144.64 26.0101 145.03 25.6501C145.795 25.0117 146.504 24.3092 147.15 23.5502C147.959 22.6329 148.559 21.5514 148.91 20.3801C149.006 19.8975 149.076 19.4102 149.12 18.9202L149.34 18.6001C149.51 18.3501 149.66 18.0901 149.81 17.8401L149.87 17.7401C149.985 17.5133 150.112 17.293 150.25 17.0801L150.43 16.7201L150.73 16.0602C150.998 15.4493 151.202 14.8126 151.34 14.1602C151.466 13.6156 151.483 13.0513 151.39 12.5001Z" fill="#FAB689" stroke="#171247" stroke-miterlimit="10"></path>
    <path d="M141.61 6.65002L140.98 4.38L140.88 3.98999L142.11 3.77002L142.3 5.06995L142.63 7.38V7.44995V7.81006L141.96 7.93994L141.91 7.77002L141.84 7.54004L141.61 6.65002Z" fill="#212059" stroke="#3A2C60" stroke-miterlimit="10"></path>
    <path d="M131.15 20.14C130.504 19.5456 129.933 18.8738 129.45 18.14C128.945 17.3823 128.605 16.5273 128.45 15.63C128.36 14.8392 128.36 14.0408 128.45 13.25C128.509 12.3643 128.64 11.4847 128.84 10.62C129.059 9.66858 129.371 8.74083 129.77 7.84996C130.191 6.88875 130.721 5.97942 131.35 5.14C132.024 4.23964 132.814 3.43258 133.7 2.73998C134.426 2.16439 135.227 1.69008 136.08 1.33C136.961 0.985663 137.882 0.753829 138.82 0.64C139.952 0.495 141.098 0.495 142.23 0.64C143.571 0.822173 144.882 1.17851 146.13 1.7C146.956 2.00708 147.731 2.43504 148.43 2.96996C149.011 3.45878 149.537 4.00862 150 4.60997C150.562 5.32295 151.051 6.09011 151.46 6.90001C151.907 7.76421 152.243 8.68147 152.46 9.62999C152.668 10.617 152.695 11.6334 152.54 12.63C152.372 13.7045 151.969 14.7287 151.36 15.63L151.05 16.05V15.97C151.297 15.38 151.484 14.767 151.61 14.14C151.72 13.5854 151.72 13.0146 151.61 12.4599C151.521 11.9673 151.267 11.5195 150.89 11.1899C150.371 10.826 149.763 10.6115 149.13 10.5699C147.458 10.3408 145.853 9.76155 144.42 8.86998C143.884 8.53973 143.378 8.16151 142.91 7.73998L142.73 6.44994L142.4 4.15001L142.32 3.60997C142.32 3.58978 142.315 3.57003 142.305 3.55223C142.295 3.53443 142.282 3.51908 142.265 3.50743C142.249 3.49579 142.23 3.48819 142.21 3.48515C142.19 3.48212 142.169 3.48375 142.15 3.48998L140.63 3.77C140.56 3.77 140.53 3.82998 140.54 3.86998L140.93 5.29002L141.56 7.56004C141.311 7.68526 141.073 7.83245 140.85 7.99999C140.459 8.3442 140.122 8.74531 139.85 9.18993C139.52 9.68993 139.23 10.19 138.94 10.75C138.65 11.31 138.21 12.04 137.8 12.66C137.201 13.5452 136.532 14.3812 135.8 15.16C134.73 16.3521 134.123 17.8885 134.09 19.49C134.085 20.547 134.314 21.5921 134.76 22.55C134.76 22.63 134.83 22.7 134.86 22.77L134.61 22.63C134.152 22.3816 133.708 22.1079 133.28 21.81L133.1 21.6899C132.411 21.224 131.76 20.7059 131.15 20.14Z" fill="#D62E31" stroke="#171247" stroke-miterlimit="10"></path>
    <path d="M131.95 23.5001C132.35 23.0501 132.72 22.5801 133.08 22.1001L133.66 22.4801C134.347 24.2359 135.456 25.7953 136.89 27.0201C137.617 27.6131 138.443 28.0734 139.33 28.3801C139.33 28.4701 139.27 28.5601 139.23 28.6501L139.16 28.8401L139.06 29.1101V29.2301C139.029 29.3018 139.002 29.3752 138.98 29.4501C138.745 30.0754 138.545 30.713 138.38 31.3601C138.27 31.7975 138.19 32.2418 138.14 32.6901C138.14 32.7501 138.14 32.7701 138.22 32.6901C138.273 32.6518 138.309 32.5945 138.32 32.5302C138.436 31.5799 138.665 30.6468 139 29.7501C139.531 30.47 139.942 31.2701 140.22 32.1201C140.22 32.2201 140.22 32.3301 140.22 32.4401C140.202 32.9282 140.138 33.4137 140.03 33.8901C139.954 34.1809 139.814 34.451 139.62 34.6802C139.333 34.9767 138.97 35.1879 138.57 35.2902C138.495 35.316 138.418 35.336 138.34 35.3501H138.05C137.137 35.4036 136.225 35.2246 135.4 34.8301C134.084 34.2302 132.867 33.4345 131.79 32.4701C130.138 31.0085 128.631 29.3911 127.29 27.6401C127.398 27.1494 127.687 26.7174 128.1 26.4302C128.37 26.3002 128.63 26.1601 128.89 26.0101L129.35 25.7301C130.31 25.1032 131.184 24.3536 131.95 23.5001Z" fill="#FAB689" stroke="#171247" stroke-miterlimit="10"></path>
    <path d="M126.57 27.1899C126.574 27.1601 126.574 27.1299 126.57 27.1L126.64 26.97C126.642 26.9433 126.642 26.9167 126.64 26.89C126.759 26.6776 126.915 26.488 127.1 26.33C127.895 25.5869 128.916 25.1326 130 25.04C129.526 25.4162 129.021 25.7508 128.49 26.04C128.349 26.1054 128.212 26.1788 128.08 26.26C127.86 26.4011 127.662 26.5729 127.49 26.77C127.292 26.9983 127.149 27.2684 127.07 27.5601C127.07 27.6101 127.07 27.67 127.07 27.72C127.024 27.9338 126.997 28.1514 126.99 28.37C126.99 28.62 127.2 30.99 127.36 31.97C127.352 31.9925 127.352 32.0175 127.36 32.04C127.36 32.32 127.43 32.61 127.47 32.89C127.631 33.9432 127.858 34.9852 128.15 36.01C128.21 36.25 128.27 36.48 128.34 36.71C128.118 36.75 127.901 36.8103 127.69 36.89C127.378 35.9292 127.137 34.9464 126.97 33.95C126.97 33.71 126.85 33.37 126.78 33.01C126.58 32.01 126.31 30.61 126.28 30.39C126.127 29.3153 126.227 28.2197 126.57 27.1899Z" fill="#212059" stroke="#171247" stroke-miterlimit="10"></path>
    <path d="M133.31 42.86L133.24 42.92H133.16H133.08H132.95C132.45 41.71 131.95 40.5 131.38 39.3C131.23 38.98 131.09 38.65 130.94 38.3C130.855 38.1212 130.744 37.9561 130.61 37.81C130.368 37.5407 130.051 37.3492 129.7 37.26C129.358 37.1763 129.002 37.1679 128.657 37.2352C128.312 37.3025 127.985 37.4441 127.7 37.65C127.422 37.8662 127.202 38.1479 127.06 38.4699C126.991 38.6491 126.95 38.8381 126.94 39.03C126.932 39.281 126.949 39.5323 126.99 39.78C127.16 41.22 127.3 42.66 127.43 44.11V44.4699H127.34H126.97C126.89 43.6199 126.81 42.77 126.72 41.93C126.72 41.47 126.63 41.01 126.58 40.54C126.53 40.07 126.47 39.8199 126.46 39.4499C126.422 38.9903 126.499 38.5285 126.684 38.106C126.869 37.6836 127.157 37.3138 127.52 37.03C127.85 36.8054 128.222 36.649 128.614 36.57C129.005 36.491 129.409 36.491 129.8 36.5699C130.176 36.631 130.531 36.7834 130.834 37.0135C131.138 37.2436 131.38 37.5445 131.54 37.89C132.13 39.3 132.8 40.6799 133.39 42.0899C133.45 42.2299 133.5 42.37 133.56 42.52L133.31 42.86Z" fill="#212059" stroke="#171247" stroke-miterlimit="10"></path>
    <path d="M135.95 50.73C135.636 49.7117 135.268 48.7103 134.85 47.73C134.3 46.37 133.73 45.01 133.17 43.65L132.99 43.21C133.08 43.1626 133.163 43.1057 133.24 43.04C133.79 44.43 134.36 45.8099 134.92 47.1899C135.34 48.1899 135.76 49.3 136.11 50.37C136.379 51.0996 136.54 51.8642 136.59 52.64C136.642 53.0351 136.574 53.4365 136.396 53.7928C136.218 54.1492 135.937 54.4442 135.59 54.64C135.247 54.8356 134.876 54.9773 134.49 55.0601L134.29 55.11L134.22 54.84C134.773 54.725 135.289 54.4741 135.72 54.11C136.091 53.7388 136.312 53.2438 136.34 52.72C136.324 52.0393 136.192 51.3664 135.95 50.73Z" fill="#272E64" stroke="#171247" stroke-miterlimit="10"></path>
    <path d="M127.48 49.4C127.57 50.51 127.66 51.62 127.83 52.71C127.912 53.4456 128.108 54.1642 128.41 54.84C128.627 55.2966 129.01 55.6539 129.48 55.84C130.04 55.9903 130.632 55.9695 131.18 55.78H131.34L131.4 55.99C131.005 56.1344 130.596 56.2351 130.18 56.29C129.908 56.307 129.635 56.2833 129.37 56.22C129.15 56.1448 128.948 56.0252 128.776 55.8687C128.604 55.7121 128.465 55.5221 128.37 55.3101C128.054 54.6541 127.845 53.9519 127.75 53.23C127.56 52.15 127.46 51.06 127.36 49.98C127.23 48.49 127.11 46.98 126.98 45.52L126.92 44.95H127.04H127.19C127.25 46.44 127.36 47.92 127.48 49.4Z" fill="#272E64" stroke="#171247" stroke-miterlimit="10"></path>
    <path d="M131.39 55.63L132.04 55.29C132.11 55.29 132.27 55.5799 132.28 55.8199C132.28 55.8999 132.28 55.9301 132.28 55.9301L131.54 56.09L131.41 55.66L131.39 55.63Z" fill="#272E64" stroke="#171247" stroke-miterlimit="10"></path>
    <path d="M134.19 55.22V55.28L133.58 55.51C133.58 55.51 133.58 55.5101 133.51 55.4301C133.42 55.2615 133.395 55.0657 133.44 54.88L134.1 54.8L134.19 55.22Z" fill="#272E64" stroke="#171247" stroke-miterlimit="10"></path>
    <path d="M112.47 177.43C112.52 177.84 112.57 178.24 112.64 178.65C112.717 179.162 112.824 179.67 112.96 180.17C113.09 180.66 113.23 181.17 113.37 181.61C113.507 182.098 113.604 182.596 113.66 183.1C113.685 183.411 113.665 183.724 113.6 184.03C113.6 184.03 113.6 184.12 113.6 184.16C113.6 184.2 113.6 184.27 113.6 184.32C113.397 184.89 112.981 185.36 112.44 185.63C112.176 185.767 111.902 185.884 111.62 185.98C111.217 186.113 110.801 186.207 110.38 186.26C109.505 186.383 108.616 186.356 107.75 186.18C107.256 186.08 106.771 185.939 106.3 185.76C106.007 185.651 105.728 185.506 105.47 185.33C104.898 184.903 104.438 184.343 104.13 183.7C104.03 183.5 103.93 183.29 103.84 183.08C103.84 182.83 103.84 182.58 103.84 182.33C103.84 182.08 103.84 181.85 103.84 181.61C103.84 181.13 103.9 180.61 103.96 180.16C104.02 179.71 104.05 179.45 104.11 179.1C104.12 178.993 104.12 178.886 104.11 178.78C104.05 178.22 104.01 177.66 104 177.1C104 176.86 104 176.62 104 176.38C104.067 177.1 104.322 177.789 104.74 178.38C104.947 178.644 105.171 178.894 105.41 179.13C105.41 179.2 105.69 179.13 105.65 179.02C105.572 178.8 105.518 178.572 105.49 178.34C105.395 177.71 105.395 177.07 105.49 176.44C105.516 176.159 105.58 175.884 105.68 175.62C105.752 175.473 105.847 175.338 105.96 175.22C106.214 174.959 106.521 174.754 106.86 174.62C107.668 174.293 108.545 174.176 109.41 174.28C109.794 174.301 110.17 174.4 110.514 174.572C110.858 174.744 111.163 174.985 111.41 175.28C111.6 175.58 111.707 175.925 111.72 176.28C111.779 176.906 111.88 177.527 112.02 178.14C112.02 178.31 112.11 178.46 112.16 178.62C112.21 178.78 112.45 178.62 112.41 178.52C112.346 178.33 112.293 178.136 112.25 177.94C112.367 177.792 112.442 177.616 112.47 177.43Z" fill="#CB5C5D" stroke="#171247" stroke-width="0.5" stroke-miterlimit="10"></path>
    <path d="M112.02 174.55C112.118 174.914 112.184 175.285 112.22 175.66C112.28 176.168 112.28 176.682 112.22 177.19C112.22 177.28 112.22 177.38 112.16 177.48C112.09 177.11 112.04 176.74 112 176.37C111.989 175.968 111.904 175.572 111.75 175.2C111.526 174.868 111.229 174.59 110.883 174.388C110.537 174.185 110.15 174.063 109.75 174.03C108.834 173.882 107.895 173.968 107.02 174.28C106.642 174.375 106.29 174.557 105.995 174.812C105.7 175.068 105.469 175.389 105.32 175.75C105.218 176.119 105.154 176.498 105.13 176.88C105.106 177.213 105.106 177.547 105.13 177.88C105.13 178.09 105.13 178.3 105.21 178.51C104.976 178.263 104.774 177.988 104.61 177.69C104.223 176.986 104.103 176.166 104.27 175.38C104.27 175.32 104.27 175.22 104.22 175.09C104.1 173.97 104.93 173.38 104.94 172.09C104.95 171.957 104.95 171.823 104.94 171.69L106.18 171.88C107.24 172.032 108.311 172.079 109.38 172.02C109.749 172 110.115 171.939 110.47 171.84C110.793 171.712 111.094 171.533 111.36 171.31L111.51 171.19C111.489 171.862 111.553 172.534 111.7 173.19C111.78 173.67 111.95 174.11 112.02 174.55Z" fill="#F8F5E6" stroke="#171247" stroke-miterlimit="10"></path>
    <path d="M120.19 120.56C120.01 121.41 119.83 122.25 119.64 123.1C119.439 124.054 119.171 124.993 118.84 125.91C118.69 126.3 118.53 126.69 118.36 127.07C118.037 127.793 117.613 128.467 117.1 129.07C116.462 129.846 115.555 130.352 114.56 130.49C114.434 130.5 114.306 130.5 114.18 130.49C114.03 130.49 113.97 130.72 114.18 130.72C115.221 130.703 116.216 130.288 116.96 129.56C117.47 129.064 117.908 128.499 118.26 127.88C117.71 130.82 117.26 133.78 116.84 136.74C116.327 140.34 115.863 143.94 115.45 147.54C115.05 150.953 114.68 154.367 114.34 157.78C114.08 160.4 113.83 163.02 113.61 165.64C113.55 166.47 113.48 167.31 113.43 168.14C113.405 168.56 113.405 168.981 113.43 169.4C113.43 169.4 113.43 169.4 113.43 169.46C112.88 169.86 112.43 170.33 111.85 170.77L111.63 170.95C111.322 171.218 110.987 171.452 110.63 171.65C110.312 171.781 109.973 171.852 109.63 171.86C108.087 171.98 106.535 171.879 105.02 171.56L104.74 171.5L103.46 171.25L102.23 170.99C102.049 170.946 101.865 170.913 101.68 170.89C101.164 168.212 100.926 165.487 100.97 162.76C101.001 158.819 101.259 154.882 101.74 150.97C102.21 146.91 102.83 142.88 103.5 138.85C104.14 135.05 104.83 131.26 105.5 127.46C105.81 125.58 106.19 123.69 106.31 121.79C106.37 120.79 106.37 119.85 106.31 118.87C106.31 118.17 106.25 117.47 106.31 116.77C106.3 116.65 106.3 116.53 106.31 116.41C109.58 117.41 112.89 118.34 116.25 119.07C117.64 119.38 119.03 119.65 120.43 119.9C120.28 120.14 120.23 120.35 120.19 120.56Z" fill="#171247" stroke="#171247" stroke-miterlimit="10"></path>
    <path d="M142.38 174.04H142.53C142.769 174.046 143.003 174.112 143.21 174.23C143.494 174.445 143.714 174.731 143.85 175.06C144.19 175.72 144.56 176.38 144.96 177.06C145.47 177.871 146.089 178.608 146.8 179.25L149.39 181.51L150.04 182.08C150.48 182.48 150.52 182.5 150.6 182.59C150.87 182.868 151.06 183.213 151.15 183.59C151.201 183.731 151.222 183.882 151.212 184.031C151.202 184.181 151.16 184.327 151.09 184.46C151.021 184.566 150.933 184.657 150.83 184.73C150.673 184.848 150.493 184.93 150.3 184.97C149.75 185.11 149.23 185.55 148.3 185.77C147.399 185.976 146.473 186.054 145.55 186C144.809 185.974 144.073 185.877 143.35 185.71C142.559 185.519 141.806 185.198 141.12 184.76C140.693 184.491 140.291 184.183 139.92 183.84C139.705 183.67 139.51 183.475 139.34 183.26C139.211 183.081 139.071 182.911 138.92 182.75C138.268 182.108 137.488 181.61 136.63 181.29C136.32 181.17 136.01 181.09 135.7 180.98C134.787 180.654 133.955 180.136 133.26 179.46C133.014 179.205 132.811 178.911 132.66 178.59C132.519 178.242 132.431 177.874 132.4 177.5C132.4 177.5 132.4 177.42 132.4 177.38C132.323 176.578 132.408 175.769 132.65 175C132.75 174.68 132.86 174.38 132.98 174.07C133.285 174.921 133.889 175.632 134.68 176.07C134.99 176.28 135.32 176.46 135.68 176.64C136.18 176.91 136.73 177.09 137.25 177.31C137.985 177.629 138.648 178.091 139.2 178.67C139.2 178.67 139.28 178.67 139.33 178.67C139.38 178.67 139.45 178.6 139.43 178.54C139.11 177.35 138.94 175.8 139.94 174.88C140.27 174.584 140.656 174.358 141.075 174.213C141.494 174.069 141.938 174.01 142.38 174.04Z" fill="#CB5C5D" stroke="#171247" stroke-width="0.5" stroke-miterlimit="10"></path>
    <path d="M142.06 173.5L142.24 173.78H141.73C141.238 173.824 140.759 173.964 140.32 174.19C139.864 174.431 139.491 174.804 139.25 175.26C138.97 175.848 138.859 176.503 138.93 177.15C138.953 177.433 138.996 177.713 139.06 177.99C138.645 177.618 138.18 177.305 137.68 177.06C137.17 176.81 136.62 176.65 136.11 176.41C135.766 176.239 135.432 176.049 135.11 175.84C134.675 175.578 134.275 175.262 133.92 174.9C133.515 174.505 133.27 173.974 133.23 173.41C133.413 173.063 133.577 172.706 133.72 172.34C133.876 171.926 133.99 171.497 134.06 171.06L134.97 171.39C135.66 171.625 136.369 171.795 137.09 171.9C138.2 172.07 139.3 172.24 140.41 172.38C140.81 172.38 141.21 172.48 141.6 172.51C141.732 172.85 141.886 173.18 142.06 173.5Z" fill="#F8F5E6" stroke="#171247" stroke-miterlimit="10"></path>
    <path d="M140.51 119.14C140.772 120.395 140.929 121.669 140.98 122.95C140.98 123.41 140.98 123.87 140.98 124.33C140.98 124.79 140.93 125.26 140.89 125.72C140.788 126.286 140.644 126.845 140.46 127.39C140.272 128.097 139.891 128.737 139.36 129.24C139.144 129.423 138.873 129.529 138.59 129.54C138.558 129.54 138.528 129.553 138.505 129.575C138.483 129.598 138.47 129.628 138.47 129.66C138.47 129.692 138.483 129.722 138.505 129.745C138.528 129.767 138.558 129.78 138.59 129.78C138.902 129.747 139.202 129.639 139.463 129.465C139.725 129.291 139.94 129.056 140.09 128.78C140.377 128.353 140.596 127.884 140.74 127.39C140.74 127.78 140.69 128.18 140.67 128.58C140.62 129.98 140.67 131.38 140.67 132.78C140.67 134.59 140.79 136.4 140.88 138.21C140.993 140.263 141.117 142.313 141.25 144.36C141.39 146.51 141.55 148.66 141.71 150.81C141.87 152.96 142.04 154.98 142.21 157.06C142.357 158.92 142.517 160.773 142.69 162.62C142.81 164.09 142.95 165.55 143.08 167.02C143.17 167.93 143.25 168.84 143.34 169.76L143.4 170.36C143.411 170.502 143.38 170.645 143.31 170.77C143.087 171.251 142.782 171.691 142.41 172.07C142.31 172.17 142.16 172.36 142.02 172.4C141.901 172.42 141.779 172.42 141.66 172.4C141.22 172.4 140.77 172.31 140.33 172.25C139.24 172.11 138.14 171.95 137.05 171.77C136.325 171.663 135.611 171.486 134.92 171.24L134.08 170.92L133.86 170.84C133.19 170.57 132.53 170.29 131.86 169.99C131.44 169.8 131.02 169.61 130.62 169.39C130.43 169.29 130.05 169.15 129.93 168.95C129.91 168.861 129.91 168.769 129.93 168.68C129.94 168.517 129.94 168.353 129.93 168.19C129.84 166.85 129.69 165.53 129.55 164.19C129.33 162.01 129.1 159.83 128.9 157.64C128.65 154.89 128.42 152.14 128.23 149.38C128.02 146.38 127.85 143.3 127.76 140.26C127.67 137.22 127.65 134.16 127.76 131.11C127.845 129.501 127.845 127.889 127.76 126.28C127.675 125.003 127.484 123.735 127.19 122.49C127.11 122.15 127.02 121.82 126.92 121.49C126.92 121.37 126.73 120.98 126.66 120.76L128.02 120.87C129.14 120.94 130.25 120.99 131.37 120.99H131.55C132.12 120.99 132.68 120.99 133.25 120.99C133.28 120.985 133.307 120.969 133.326 120.945C133.344 120.92 133.353 120.89 133.35 120.86C133.35 120.25 133.3 119.64 133.28 119.03C134.05 119.03 134.82 118.93 135.59 118.82C136.575 118.652 137.547 118.418 138.5 118.12L140.11 117.61C140.24 118.1 140.41 118.62 140.51 119.14Z" fill="#171247" stroke="#171247" stroke-miterlimit="10"></path>
    <path d="M171.02 67.4998C170.885 67.6059 170.722 67.6687 170.55 67.6799C170.311 67.6948 170.07 67.6948 169.83 67.6799C169.38 67.7048 168.93 67.7048 168.48 67.6799C167.705 67.62 166.926 67.62 166.15 67.6799C165.59 67.6799 165.03 67.6799 164.47 67.6799C164.2 67.6799 163.93 67.6799 163.67 67.6799C163.41 67.6799 163.45 67.8198 163.42 67.9398C163.404 67.988 163.406 68.0403 163.424 68.0877C163.442 68.1351 163.476 68.1746 163.52 68.1998C163.57 68.21 163.621 68.21 163.67 68.1998H165.67C166.13 68.1998 166.58 68.2699 167.03 68.2899C167.427 68.3098 167.824 68.3098 168.22 68.2899C168.68 68.2899 169.13 68.2899 169.59 68.2899C169.792 68.2696 169.996 68.2899 170.19 68.3498C170.262 68.3677 170.326 68.4101 170.37 68.4698C170.382 68.5124 170.382 68.5572 170.37 68.5998C170.365 68.7257 170.324 68.8475 170.25 68.9498C170.164 69.0799 170.032 69.1728 169.88 69.2098C169.32 69.3936 168.739 69.5045 168.15 69.5399H167.62C167.467 69.53 167.313 69.53 167.16 69.5399C166.634 69.5799 166.106 69.5799 165.58 69.5399H165.1C164.77 69.5399 164.43 69.5399 164.1 69.5399C163.682 69.4618 163.251 69.4963 162.85 69.6398C162.69 69.7298 162.44 69.8998 162.6 70.0998C162.76 70.2998 162.95 70.2398 163.11 70.2698C163.27 70.2998 163.65 70.3899 163.93 70.4299L164.49 70.4998C164.7 70.4998 164.91 70.5798 165.12 70.6298C165.285 70.6662 165.452 70.6929 165.62 70.7098C165.86 70.7098 166.1 70.7798 166.34 70.8298C166.557 70.8721 166.769 70.9392 166.97 71.0299C167.074 71.0723 167.158 71.1529 167.205 71.2552C167.251 71.3575 167.257 71.4735 167.22 71.5798C167.177 71.6513 167.117 71.7114 167.046 71.755C166.975 71.7985 166.894 71.8241 166.81 71.8298C166.392 71.8847 165.968 71.8847 165.55 71.8298H165.09H164.76C164.495 71.8251 164.23 71.795 163.97 71.7398C163.83 71.7398 163.68 71.6598 163.53 71.6398H163.3H162.98C162.741 71.6186 162.504 71.5819 162.27 71.5299C162.08 71.5299 161.88 71.4599 161.69 71.4099H161.56C161.461 71.3998 161.36 71.3998 161.26 71.4099C160.078 71.4898 158.892 71.4898 157.71 71.4099C157.078 71.3621 156.449 71.2685 155.83 71.1298C155.502 71.0392 155.168 70.9724 154.83 70.9299C154.621 70.9097 154.41 70.9097 154.2 70.9299C153.67 70.9899 153.15 71.0799 152.63 71.1499L151.16 71.3698C151.23 70.5998 151.28 69.8099 151.33 69.0299C151.373 67.9867 151.487 66.9477 151.67 65.9199C151.99 65.9199 152.3 65.8399 152.61 65.7799C153.05 65.7298 153.474 65.5829 153.85 65.3498C154 65.2398 154.14 65.1098 154.29 64.9898L155.02 64.3798L156.75 62.9798C156.96 62.8198 157.2 62.6298 157.4 62.4998C157.46 62.4474 157.528 62.4037 157.6 62.3698C157.707 62.3379 157.818 62.321 157.93 62.3198L158.35 62.2398C158.77 62.1598 159.19 62.0598 159.61 61.9498L160.39 61.7398C160.62 61.6896 160.855 61.6695 161.09 61.6799C161.49 61.6799 161.87 61.7998 162.27 61.8498C162.53 61.8698 162.791 61.8698 163.05 61.8498C163.192 61.822 163.336 61.8021 163.48 61.7899H163.83H163.89V61.8698C163.898 61.9363 163.898 62.0033 163.89 62.0698C163.834 62.2509 163.734 62.4158 163.6 62.5499C163.11 62.9993 162.465 63.2427 161.8 63.2298H161.48C161.34 63.2298 161.19 63.2298 161.05 63.2298C160.903 63.2607 160.759 63.3042 160.62 63.3598L160.23 63.5098C159.908 63.6293 159.61 63.8054 159.35 64.0299L159.16 64.2098C159.04 64.3398 159.16 64.5198 159.31 64.3898C159.428 64.2694 159.554 64.1591 159.69 64.0599C160.5 64.1199 161.29 64.2298 162.1 64.2598C162.52 64.2598 162.93 64.2598 163.35 64.2598L164.55 64.3099C165.46 64.3099 166.36 64.4698 167.27 64.5698C167.631 64.6262 167.988 64.7031 168.34 64.7999C168.64 64.8699 168.94 64.9298 169.23 65.0098C169.349 65.0341 169.46 65.0893 169.55 65.1699C169.638 65.2628 169.69 65.3827 169.7 65.5098C169.72 65.6285 169.697 65.7504 169.635 65.8532C169.572 65.9561 169.475 66.033 169.36 66.0698C169.052 66.1146 168.739 66.1146 168.43 66.0698C168.094 66.0503 167.76 66.0069 167.43 65.9398L167.07 65.8498C166.927 65.8395 166.783 65.8395 166.64 65.8498C166.33 65.8498 166.01 65.8498 165.64 65.8498H165.24C164.73 65.9198 164.24 65.9198 163.68 65.9598H163.57C163.576 65.8732 163.576 65.7864 163.57 65.6998C163.556 65.534 163.504 65.3735 163.42 65.2298C163.36 65.1398 163.14 65.2898 163.2 65.3798C163.272 65.513 163.316 65.6593 163.33 65.8099C163.367 66.0178 163.383 66.2287 163.38 66.4398C163.405 66.8089 163.375 67.1798 163.29 67.5399C163.29 67.5999 163.35 67.6098 163.39 67.5998C163.422 67.5933 163.451 67.5789 163.476 67.5579C163.5 67.5369 163.519 67.5101 163.53 67.4798C163.614 67.1025 163.647 66.7158 163.63 66.3298C163.63 66.3298 163.63 66.2498 163.63 66.2098H163.79H164.18L165.07 66.1499H165.39H166.33C166.617 66.156 166.902 66.1928 167.18 66.2598C167.509 66.3393 167.843 66.3928 168.18 66.4199C168.533 66.4549 168.888 66.4549 169.24 66.4199C169.404 66.4163 169.563 66.3678 169.7 66.2799C169.713 66.2854 169.726 66.2882 169.74 66.2882C169.754 66.2882 169.768 66.2854 169.78 66.2799L170.31 66.3498L170.73 66.4099C170.846 66.4219 170.958 66.4558 171.06 66.5098C171.135 66.5707 171.194 66.6479 171.233 66.7355C171.273 66.8232 171.291 66.9188 171.287 67.0148C171.283 67.1109 171.257 67.2046 171.211 67.2888C171.165 67.3729 171.099 67.4452 171.02 67.4998Z" fill="#FAB689" stroke="#171247" stroke-width="0.5" stroke-miterlimit="10"></path>
    <path d="M146.55 48.7001C146.55 48.8701 146.6 49.0401 146.63 49.2101C146.74 48.5101 146.84 47.8201 146.93 47.1201C146.76 47.3001 146.58 47.4801 146.39 47.6501C146.44 48.0001 146.49 48.3501 146.55 48.7001Z" fill="#A2DBEA" stroke="#171247" stroke-miterlimit="10"></path>
    <path d="M140.28 58.5L140.16 59.02L140.88 58.8101L141.88 58.52L140.28 58.5Z" fill="#A2DBEA" stroke="#171247" stroke-miterlimit="10"></path>
    <path d="M142.71 46.5798C142.681 46.5507 142.658 46.5169 142.64 46.4799C142.57 46.3431 142.529 46.1933 142.52 46.0399C142.485 45.8818 142.485 45.7181 142.52 45.5599C142.533 45.5026 142.557 45.4483 142.59 45.3999C142.554 45.7973 142.595 46.1977 142.71 46.5798Z" fill="#212059" stroke="#171247" stroke-miterlimit="10"></path>
    <path d="M142.35 45.5001C142.343 45.4706 142.343 45.4397 142.35 45.4102C142.385 45.2979 142.46 45.202 142.56 45.1401C142.56 45.1401 142.56 45.1401 142.56 45.0801C142.498 44.8692 142.467 44.6501 142.47 44.4302C142.16 44.4302 141.92 44.6701 141.78 44.9701C141.958 45.1591 142.149 45.3362 142.35 45.5001Z" fill="#212059" stroke="#171247" stroke-miterlimit="10"></path>
    <path d="M142.68 46.8999C142.626 46.8938 142.575 46.8727 142.533 46.8391C142.491 46.8055 142.458 46.7607 142.44 46.7098C142.146 46.5417 141.869 46.3477 141.61 46.1299C141.611 46.5407 141.71 46.9454 141.9 47.3099C141.953 47.4291 142.036 47.5323 142.142 47.6095C142.247 47.6867 142.37 47.7351 142.5 47.7499C142.569 47.7691 142.641 47.7691 142.71 47.7499C142.776 47.7092 142.833 47.6554 142.878 47.5918C142.923 47.5282 142.954 47.456 142.97 47.3799C142.855 47.2522 142.766 47.1025 142.71 46.9398L142.68 46.8999Z" fill="#212059" stroke="#171247" stroke-miterlimit="10"></path>
    <path d="M144 45.6C143.978 45.4057 143.934 45.2146 143.87 45.03C143.822 44.846 143.712 44.6838 143.56 44.5699C143.33 44.4499 143.18 44.8101 143.11 45.0601C143.363 45.3038 143.667 45.4882 144 45.6Z" fill="#212059" stroke="#171247" stroke-miterlimit="10"></path>
    <path d="M143.57 46.1301C143.39 46.0701 143.21 45.9902 143.03 45.9102C143.034 46.1998 143.084 46.4869 143.18 46.7601C143.26 46.9801 143.49 47.4202 143.73 47.1702C143.841 47.0226 143.916 46.8515 143.95 46.6702C143.981 46.5285 144.001 46.3847 144.01 46.2401C143.862 46.2118 143.715 46.1751 143.57 46.1301Z" fill="#212059" stroke="#171247" stroke-miterlimit="10"></path>
    <path d="M140.43 32.16C140.475 31.8284 140.502 31.4946 140.51 31.16C140.51 31.05 140.42 30.94 140.38 30.84L140.3 30.66C140.019 30.0864 139.684 29.5406 139.3 29.03L139.18 29.37C139.18 29.46 139.11 29.55 139.08 29.64C139.592 30.2592 139.986 30.9678 140.24 31.73L140.43 32.16Z" fill="#212059" stroke="#171247" stroke-miterlimit="10"></path>
    <path d="M142.81 39.4999V39.4398C142.549 38.0006 142.215 36.5756 141.81 35.1699C141.73 35.3999 141.66 35.6299 141.58 35.8699C141.951 37.2626 142.245 38.6747 142.46 40.0999C142.61 39.9399 142.71 39.7399 142.81 39.4999Z" fill="#212059" stroke="#171247" stroke-miterlimit="10"></path>
    <path d="M143.11 44.01C143.153 43.6785 143.173 43.3443 143.17 43.01L142.8 43.49C142.815 43.7898 142.815 44.0902 142.8 44.39C142.792 44.5065 142.792 44.6235 142.8 44.74C142.875 44.5951 142.976 44.4661 143.1 44.36C143.11 44.31 143.1 44.11 143.11 44.01Z" fill="#212059" stroke="#171247" stroke-miterlimit="10"></path>
    <path d="M141.24 5.30005C141.59 5.30005 141.95 5.20994 142.32 5.18994V5.06995L142.13 3.77002L140.9 3.98999L141 4.38L141.24 5.30005Z" fill="#212059" stroke="#3A2C60" stroke-miterlimit="10"></path>
    <path d="M142.63 7.38001L142.53 6.68006C142.231 6.65515 141.929 6.65515 141.63 6.68006L141.85 7.51001L141.92 7.73999L141.97 7.91004L142.64 7.78003V7.42005L142.63 7.38001Z" fill="#212059" stroke="#3A2C60" stroke-miterlimit="10"></path>
    <path d="M128.22 36.0299C127.928 35.0051 127.701 33.9631 127.54 32.9099V32.6499L127.42 32.8198C127.27 33.0598 127.12 33.3098 126.98 33.5698C126.98 33.7198 127.03 33.8598 127.06 33.9698C127.227 34.9663 127.468 35.9491 127.78 36.9099C127.991 36.8302 128.208 36.7699 128.43 36.7299C128.34 36.4999 128.28 36.2699 128.22 36.0299Z" fill="#212059" stroke="#171247" stroke-miterlimit="10"></path>
    <path d="M127.18 26.33C126.995 26.488 126.839 26.6776 126.72 26.89C126.722 26.9167 126.722 26.9433 126.72 26.97L126.65 27.1C126.654 27.1299 126.654 27.1601 126.65 27.1899C126.381 27.9389 126.279 28.7375 126.35 29.53C126.576 29.2111 126.83 28.9132 127.11 28.64C127.101 28.5569 127.101 28.4731 127.11 28.39C127.117 28.1714 127.144 27.9538 127.19 27.74C127.19 27.74 127.19 27.63 127.19 27.58C127.269 27.2883 127.412 27.0183 127.61 26.79C127.781 26.5929 127.98 26.4211 128.2 26.28C128.332 26.1988 128.469 26.1254 128.61 26.0601C129.141 25.7708 129.646 25.4362 130.12 25.0601C129.025 25.1383 127.988 25.5859 127.18 26.33Z" fill="#212059" stroke="#171247" stroke-miterlimit="10"></path>
    <path d="M127.07 42.4199C126.845 42.2397 126.632 42.046 126.43 41.8398C126.43 41.9798 126.43 42.1199 126.43 42.2699C126.52 43.1099 126.6 43.9599 126.68 44.8099H127.05H127.14V44.4498L127.07 42.4199Z" fill="#212059" stroke="#171247" stroke-miterlimit="10"></path>
    <path d="M130.4 37.98C130.415 37.7369 130.415 37.4931 130.4 37.25C130.133 37.0857 129.838 36.9706 129.53 36.9101C129.139 36.8311 128.735 36.8311 128.344 36.9101C127.952 36.9891 127.58 37.1454 127.25 37.37C126.902 37.6264 126.629 37.9718 126.46 38.37C126.55 38.64 126.65 38.9001 126.75 39.1601C126.773 39.0167 126.809 38.876 126.86 38.74C127.002 38.418 127.222 38.1363 127.5 37.9201C127.785 37.7142 128.112 37.5726 128.457 37.5053C128.802 37.4379 129.158 37.4464 129.5 37.5301C129.833 37.6009 130.143 37.7558 130.4 37.98Z" fill="#212059" stroke="#171247" stroke-miterlimit="10"></path>
    <path d="M133.14 42.4301C132.91 41.8801 132.67 41.34 132.42 40.8C132.34 41.07 132.25 41.33 132.16 41.6C132.38 42.11 132.6 42.6 132.81 43.14H132.94H133.02H133.1L133.17 43.08C133.25 42.71 133.2 42.5701 133.14 42.4301Z" fill="#212059" stroke="#171247" stroke-miterlimit="10"></path>
    <path d="M133.52 44.5001C133.52 44.3301 133.59 44.1601 133.62 43.9801L133.26 43.0801C133.183 43.1457 133.1 43.2028 133.01 43.2501L133.19 43.6901L133.52 44.5001Z" fill="#272E64" stroke="#171247" stroke-miterlimit="10"></path>
    <path d="M135.64 49.73C135.64 49.61 135.72 49.48 135.77 49.36C135.51 48.65 135.22 47.94 134.94 47.23L134.76 46.79C134.76 46.92 134.67 47.04 134.62 47.16C134.57 47.28 134.79 47.57 134.87 47.77C135.14 48.42 135.4 49.07 135.64 49.73Z" fill="#212059" stroke="#171247" stroke-miterlimit="10"></path>
    <path d="M136.22 53.29C136.123 53.6245 135.94 53.9279 135.69 54.17C135.258 54.5342 134.743 54.785 134.19 54.9L134.26 55.17L134.46 55.12C134.846 55.0372 135.217 54.8955 135.56 54.7C135.797 54.5659 136.007 54.3897 136.18 54.1801C136.433 53.8556 136.579 53.4609 136.6 53.05C136.479 53.1394 136.352 53.2197 136.22 53.29Z" fill="#212059" stroke="#171247" stroke-miterlimit="10"></path>
    <path d="M127.04 46.95L127.32 47.3C127.26 46.52 127.19 45.74 127.13 44.96H126.95H126.83L126.89 45.53L127.04 46.95Z" fill="#272E64" stroke="#171247" stroke-miterlimit="10"></path>
    <path d="M127.69 53.2101C127.69 53.2901 127.69 53.3801 127.69 53.4601L127.94 53.5502C127.88 53.2702 127.83 52.9901 127.79 52.7101C127.63 51.7101 127.54 50.6401 127.46 49.6001C127.37 49.5201 127.29 49.4301 127.21 49.3501C127.21 49.5501 127.21 49.7601 127.21 49.9601C127.4 51.0401 127.5 52.1301 127.69 53.2101Z" fill="#212059" stroke="#171247" stroke-miterlimit="10"></path>
    <path d="M131.34 55.7601H131.18C130.632 55.9496 130.04 55.9704 129.48 55.8201C129.295 55.7592 129.125 55.6605 128.98 55.5302L128.44 55.3901C128.549 55.5763 128.693 55.7392 128.864 55.8696C129.036 56 129.231 56.0954 129.44 56.1501C129.705 56.2135 129.978 56.237 130.25 56.2201C130.666 56.1651 131.076 56.0646 131.47 55.9202L131.34 55.7601Z" fill="#212059" stroke="#171247" stroke-miterlimit="10"></path>
    <path d="M131.46 55.8701L131.52 56.0801L132.26 55.9202C132.26 55.9202 132.26 55.9202 132.26 55.8102C132.265 55.7469 132.265 55.6834 132.26 55.6201C132 55.7401 131.72 55.7701 131.46 55.8701Z" fill="#272E64" stroke="#171247" stroke-miterlimit="10"></path>
    <path d="M133.38 55.16C133.391 55.2539 133.418 55.3452 133.46 55.4301C133.46 55.5001 133.52 55.52 133.53 55.51L134.14 55.28V55.22L134.06 54.96L133.38 55.16Z" fill="#272E64" stroke="#171247" stroke-miterlimit="10"></path>
    <path d="M133.05 119.01C133.055 118.927 133.055 118.843 133.05 118.76C132.957 115.993 132.92 113.223 132.94 110.45C132.77 110.24 132.6 110.03 132.44 109.81C132.08 109.32 131.73 108.81 131.39 108.32C131.31 112.32 131.39 116.46 131.55 120.74C132.08 120.74 132.61 120.74 133.13 120.74C133.13 120.36 133.13 119.99 133.08 119.61C133.07 119.39 133.06 119.2 133.05 119.01Z" fill="#BDE5EE"></path>
    <path d="M108.87 176.83C109.498 178.582 110.525 180.163 111.87 181.45C112.4 181.944 112.969 182.395 113.57 182.8C113.507 182.399 113.424 182.002 113.32 181.61C113.18 181.13 113.04 180.66 112.91 180.17C112.774 179.67 112.667 179.162 112.59 178.65C112.52 178.24 112.47 177.84 112.42 177.43C112.389 177.593 112.321 177.747 112.22 177.88C112.263 178.076 112.316 178.27 112.38 178.46C112.38 178.55 112.16 178.65 112.13 178.56C112.1 178.47 112.03 178.25 111.99 178.08C111.85 177.467 111.75 176.846 111.69 176.22C111.677 175.865 111.57 175.52 111.38 175.22C111.133 174.925 110.828 174.684 110.484 174.512C110.14 174.34 109.764 174.241 109.38 174.22C109.001 174.18 108.619 174.18 108.24 174.22C108.355 175.11 108.566 175.985 108.87 176.83Z" fill="#CB5C5D" stroke="#171247" stroke-width="0.5" stroke-miterlimit="10"></path>
    <path d="M109.45 186.26C108.68 185.563 108.06 184.716 107.63 183.77C107.175 182.759 106.839 181.699 106.63 180.61C106.405 179.5 106.245 178.378 106.15 177.25C106.09 176.54 106.05 175.83 106.01 175.12C105.897 175.238 105.803 175.373 105.73 175.52C105.631 175.784 105.567 176.06 105.54 176.34C105.445 176.97 105.445 177.61 105.54 178.24C105.569 178.472 105.622 178.7 105.7 178.92C105.7 179 105.51 179.1 105.46 179.03C105.221 178.795 104.997 178.544 104.79 178.28C104.373 177.69 104.118 177 104.05 176.28C104.05 176.52 104.05 176.76 104.05 177C104.05 177.56 104.1 178.12 104.16 178.68C104.17 178.787 104.17 178.894 104.16 179C104.1 179.35 104.05 179.71 104.01 180.06C103.97 180.41 103.91 181.06 103.89 181.51C103.89 181.75 103.89 181.99 103.89 182.23C103.89 182.48 103.89 182.73 103.89 182.98C103.98 183.19 104.08 183.4 104.18 183.6C104.489 184.244 104.949 184.803 105.52 185.23C105.778 185.407 106.057 185.551 106.35 185.66C106.821 185.84 107.306 185.98 107.8 186.08C108.411 186.209 109.036 186.26 109.66 186.23L109.45 186.26Z" fill="#CB5C5D" stroke="#171247" stroke-width="0.5" stroke-miterlimit="10"></path>
    <path d="M141.47 177.56C141.909 177.962 142.38 178.327 142.88 178.65C143.422 178.998 143.99 179.303 144.58 179.56C145.875 180.174 147.212 180.695 148.58 181.12L149.12 181.28C148.34 180.59 147.54 179.91 146.76 179.21C146.047 178.57 145.427 177.833 144.92 177.02C144.52 176.39 144.15 175.73 143.81 175.02C143.675 174.691 143.453 174.405 143.17 174.19C142.963 174.071 142.729 174.006 142.49 174H142.34C141.904 173.954 141.463 173.994 141.042 174.12C140.622 174.245 140.23 174.452 139.89 174.73C139.668 174.935 139.491 175.183 139.37 175.46C140.08 176.2 140.75 176.92 141.47 177.56Z" fill="#CB5C5D" stroke="#171247" stroke-width="0.5" stroke-miterlimit="10"></path>
    <path d="M145.87 185.11C144.947 185.005 144.044 184.766 143.19 184.4C142.316 184.052 141.523 183.527 140.86 182.86C140.276 182.117 139.634 181.422 138.94 180.78C138.538 180.49 138.106 180.246 137.65 180.05C137.255 179.873 136.874 179.666 136.51 179.43C136.135 179.188 135.798 178.891 135.51 178.55C135.205 178.154 134.941 177.729 134.72 177.28C134.34 176.638 134.006 175.97 133.72 175.28C133.335 174.932 133.057 174.481 132.92 173.98C132.8 174.29 132.69 174.59 132.59 174.91C132.348 175.679 132.263 176.488 132.34 177.29C132.34 177.29 132.34 177.37 132.34 177.41C132.371 177.784 132.459 178.152 132.6 178.5C132.751 178.821 132.954 179.115 133.2 179.37C133.895 180.046 134.727 180.564 135.64 180.89C135.95 181 136.26 181.08 136.57 181.2C137.428 181.52 138.208 182.018 138.86 182.66C139.011 182.821 139.151 182.991 139.28 183.17C139.451 183.385 139.645 183.58 139.86 183.75C140.231 184.093 140.633 184.401 141.06 184.67C141.746 185.108 142.499 185.429 143.29 185.62C144.013 185.787 144.749 185.884 145.49 185.91C146.413 185.964 147.339 185.886 148.24 185.68C149.09 185.47 149.88 185.45 150.24 184.88C150.245 184.864 150.245 184.846 150.24 184.83C148.814 185.197 147.332 185.292 145.87 185.11Z" fill="#CB5C5D" stroke="#171247" stroke-width="0.5" stroke-miterlimit="10"></path>
    <path d="M142.51 33.4399C143.662 34.5515 144.697 35.7779 145.6 37.1C146.291 38.1501 146.779 39.3203 147.04 40.55C147.257 41.7944 147.314 43.0612 147.21 44.3199C147.11 45.9599 146.88 47.59 146.63 49.21C146.63 49.04 146.63 48.87 146.55 48.7C146.45 48.06 146.34 47.43 146.3 46.78C146.27 46.2004 146.27 45.6197 146.3 45.04C146.312 44.3695 146.376 43.7009 146.49 43.04C146.492 43.0059 146.485 42.9718 146.471 42.9406C146.457 42.9093 146.436 42.8817 146.41 42.86C146.41 42.86 146.32 42.81 146.31 42.86C146.218 43.389 146.161 43.9235 146.14 44.46C146.063 45.6356 146.117 46.8161 146.3 47.98C146.4 48.57 146.5 49.15 146.57 49.74C146.57 49.84 146.57 49.95 146.57 50.05C146.57 50.45 146.65 50.86 146.68 51.26C146.725 52.1518 146.685 53.0459 146.56 53.9301C146.382 55.0591 146.128 56.1749 145.8 57.27C145.43 57.36 145.08 57.49 144.72 57.6L142.5 58.28L140.87 58.77L140.15 58.98C140.613 57.2065 140.947 55.4017 141.15 53.58C141.228 52.1786 141.181 50.7731 141.01 49.38C140.9 48.31 140.72 47.2401 140.53 46.1801C140.28 44.8501 140 43.5201 139.75 42.1801C139.37 40.1801 139.02 38.2 138.7 36.24C138.7 36.02 138.63 35.8 138.59 35.58C138.963 35.4914 139.307 35.309 139.59 35.05C139.778 34.8743 139.931 34.6638 140.04 34.4301C140.158 34.1081 140.232 33.7717 140.26 33.4301C140.26 33.1401 140.32 32.86 140.34 32.58C140.65 33.42 140.96 34.39 141.25 35.42C142.097 38.2395 142.535 41.166 142.55 44.11C142.369 44.112 142.192 44.1598 142.034 44.249C141.877 44.3382 141.745 44.4658 141.65 44.62C141.379 45.0182 141.232 45.4882 141.23 45.97C141.209 46.4505 141.32 46.9275 141.55 47.35C141.63 47.5135 141.749 47.6543 141.898 47.7592C142.047 47.864 142.219 47.9296 142.4 47.95C142.535 47.9801 142.675 47.9801 142.81 47.95C142.917 47.8996 143.012 47.8288 143.091 47.7412C143.17 47.6537 143.231 47.5512 143.27 47.4399C143.327 47.4641 143.388 47.4767 143.45 47.4767C143.512 47.4767 143.573 47.4641 143.63 47.4399C143.738 47.3811 143.834 47.3013 143.911 47.2052C143.988 47.1091 144.046 46.9985 144.08 46.88C144.292 46.2273 144.275 45.5213 144.03 44.88C143.957 44.6624 143.817 44.4733 143.63 44.34C143.51 44.2679 143.366 44.2464 143.23 44.28C143.225 44.1834 143.225 44.0866 143.23 43.99C143.63 40.51 141.96 34.74 140.9 31.78C141.46 32.37 141.95 32.9099 142.51 33.4399Z" fill="white" stroke="#171247" stroke-width="0.5" stroke-miterlimit="10"></path>
    <path d="M111 50.88C110.725 48.0734 110.725 45.2466 111 42.4399C111.149 40.6009 111.512 38.7854 112.08 37.03C112.69 35.2 113.67 33.15 115.49 32.24C116.13 31.92 116.81 31.66 117.49 31.36L119.57 30.4301L123.33 28.71C124.33 28.24 125.33 27.71 126.4 27.29C126.123 28.313 126.065 29.3831 126.23 30.4301C126.23 30.6601 126.52 31.9901 126.73 33.0601L126.98 34.35C126.98 34.35 126.98 34.35 126.98 34.4C127.136 35.2742 127.353 36.1362 127.63 36.98L127.46 37.0699C127.066 37.2932 126.733 37.6113 126.492 37.9954C126.251 38.3795 126.109 38.8176 126.08 39.27C126.045 39.5623 126.045 39.8577 126.08 40.15L126.23 41.49C126.33 42.4 126.41 43.3 126.5 44.21V44.77L126.56 44.83C126.7 46.38 126.82 47.92 126.96 49.46C127.06 50.61 127.16 51.77 127.35 52.91C127.446 53.6831 127.655 54.4378 127.97 55.15C128.197 55.6599 128.602 56.0691 129.11 56.3C129.361 56.3998 129.63 56.4506 129.9 56.45C130.305 56.4406 130.706 56.3698 131.09 56.24L131.37 56.15C131.399 56.1599 131.431 56.1599 131.46 56.15L132.18 55.99C132.221 55.982 132.259 55.9613 132.288 55.9308C132.316 55.9003 132.335 55.8615 132.34 55.8199C132.361 55.4923 132.254 55.1695 132.04 54.92C132.008 54.9016 131.972 54.8918 131.935 54.8918C131.898 54.8918 131.862 54.9016 131.83 54.92L131.18 55.26C131.15 55.2773 131.125 55.302 131.108 55.3318C131.09 55.3616 131.081 55.3955 131.08 55.4301C130.551 55.6697 129.959 55.7361 129.39 55.62C129.184 55.5207 129 55.381 128.849 55.2092C128.698 55.0375 128.582 54.8371 128.51 54.62C128.226 53.984 128.034 53.3105 127.94 52.62C127.77 51.62 127.31 44.76 127.33 44.7C127.344 44.6646 127.344 44.6253 127.33 44.59C127.217 43.2566 127.087 41.8967 126.94 40.51C126.94 40.15 126.87 39.7999 126.82 39.4399C126.795 39.2575 126.795 39.0725 126.82 38.89C126.891 38.5705 127.059 38.2807 127.3 38.0601C127.555 37.8316 127.859 37.6635 128.187 37.5682C128.516 37.473 128.862 37.4531 129.2 37.51C129.539 37.5718 129.855 37.7198 130.12 37.9399C130.448 38.2842 130.694 38.6978 130.84 39.15C131.43 40.47 132.02 41.78 132.57 43.15C132.57 43.15 132.57 43.15 132.64 43.15C132.71 43.15 133.82 46.01 134.38 47.38C134.8 48.38 135.26 49.38 135.6 50.38C135.845 50.9795 135.994 51.614 136.04 52.26C136.057 52.5154 136.033 52.7719 135.97 53.02C135.92 53.2162 135.824 53.3978 135.69 53.55C135.308 53.9531 134.813 54.2317 134.27 54.35C134.185 54.3734 134.095 54.3734 134.01 54.35L133.28 54.47C133.242 54.4721 133.205 54.4856 133.175 54.5088C133.145 54.532 133.122 54.5637 133.11 54.6C133.074 54.7345 133.069 54.8754 133.095 55.0121C133.121 55.1488 133.178 55.2779 133.26 55.39C133.281 55.4146 133.307 55.4343 133.337 55.4481C133.366 55.4619 133.398 55.4694 133.43 55.47H133.49L134.09 55.24C134.123 55.2281 134.154 55.2095 134.18 55.1854C134.205 55.1614 134.226 55.1323 134.24 55.1C134.645 55.0128 135.04 54.8855 135.42 54.72C135.679 54.5927 135.916 54.4238 136.12 54.22C136.493 53.8279 136.707 53.3111 136.72 52.77C136.724 52.0291 136.605 51.2926 136.37 50.59C136.06 49.59 135.65 48.52 135.25 47.5C134.69 46.1 133.38 42.64 133.37 42.61C132.79 41.18 132.13 39.79 131.51 38.38C131.417 38.1341 131.303 37.8966 131.17 37.67C131.062 37.5024 130.931 37.3508 130.78 37.22C130.492 36.96 130.151 36.7656 129.78 36.65C129.359 36.5236 128.916 36.4862 128.48 36.54C128.28 35.84 128.09 35.1401 127.93 34.4301C127.737 33.5926 127.593 32.7444 127.5 31.89C127.505 31.8791 127.508 31.8671 127.508 31.855C127.508 31.8429 127.505 31.8309 127.5 31.8199C127.33 30.8199 127.12 28.47 127.13 28.26C127.136 28.1024 127.153 27.9454 127.18 27.79C128.391 29.3633 129.729 30.8347 131.18 32.1899C132.312 33.2579 133.592 34.1572 134.98 34.86C135.46 35.0963 135.963 35.284 136.48 35.42C137.11 39.42 137.63 42.1 138.05 44.23C138.645 46.8575 138.98 49.537 139.05 52.23C139.054 54.0745 138.808 55.9111 138.32 57.6899C138.18 58.2799 138.04 58.87 137.92 59.51L136.11 59.95C134.9 60.23 133.68 60.4799 132.45 60.6899C131.02 60.9399 129.58 61.14 128.14 61.3L127.39 61.36C126.86 59.99 126.39 58.61 125.92 57.21C125.54 56.03 125.18 54.84 124.86 53.63C124.62 52.72 124.4 51.8 124.19 50.87C124.06 50.26 123.94 49.66 123.84 49.05C123.79 48.8 123.78 48.5599 123.72 48.3199C123.72 48.1899 123.45 48.32 123.46 48.38C123.47 48.44 123.52 48.78 123.56 48.98C123.65 49.55 123.76 50.1101 123.88 50.6801C124.07 51.5701 124.28 52.45 124.5 53.33C124.81 54.5 125.14 55.6699 125.5 56.8199C125.94 58.2199 126.42 59.61 126.95 60.99C126.95 61.13 127.05 61.27 127.11 61.41H127.05C126.803 61.463 126.566 61.5576 126.35 61.6899C125.937 61.9499 125.58 62.2899 125.3 62.6899C125.105 62.9509 124.928 63.2249 124.77 63.51C124.69 63.64 124.93 63.76 125 63.64C125.306 63.0542 125.72 62.5316 126.22 62.1C126.539 61.8268 126.933 61.6561 127.35 61.61L129.24 61.41C131.438 61.1404 133.621 60.7599 135.78 60.27C136.48 60.11 137.17 59.95 137.86 59.77H138.05L139.67 59.33L139.96 59.24L140.38 59.12L142.88 58.36L145.78 57.48C145.991 57.6715 146.167 57.8983 146.3 58.15C146.497 58.5263 146.665 58.9174 146.8 59.3199C147.123 60.2968 147.358 61.3009 147.5 62.3199C147.55 62.7099 147.6 63.1 147.64 63.49C147.635 63.5699 147.635 63.6501 147.64 63.73C147.665 64.1529 147.665 64.577 147.64 65C147.635 65.2161 147.605 65.431 147.55 65.64C147.536 65.6954 147.516 65.7491 147.49 65.8C147.385 65.8882 147.271 65.9652 147.15 66.03C146.84 66.24 146.52 66.44 146.21 66.63C145.33 67.18 144.42 67.63 143.5 68.15L143.28 68.26C142.94 68.44 142.6 68.6 142.28 68.76C140.97 69.37 139.64 69.92 138.28 70.41H138.22L137.98 70.5C137.43 70.69 136.87 70.88 136.32 71.05L136.11 71.12C135.48 71.31 134.84 71.5 134.19 71.67C132.94 72.01 131.68 72.3 130.4 72.54C129.28 72.75 128.16 72.92 127.03 73.05C126.11 73.14 125.19 73.21 124.27 73.22H123.77C122.108 72.309 120.586 71.164 119.25 69.8199C117.758 68.3197 116.458 66.6402 115.38 64.8199C114.178 62.7875 113.205 60.6276 112.48 58.38C111.904 56.576 111.466 54.7306 111.17 52.86L111.11 52.46C111.13 52.05 111.06 51.5 111 50.88Z" fill="white" stroke="#171247" stroke-width="0.5" stroke-miterlimit="10"></path>
    <path d="M133.04 118.76C133.045 118.843 133.045 118.927 133.04 119.01C133.04 119.2 133.04 119.39 133.04 119.58C133.04 119.96 133.04 120.33 133.09 120.71C132.57 120.71 132.04 120.71 131.51 120.71C131.119 112.407 131.303 104.087 132.06 95.8099C132.826 87.5884 134.254 79.4419 136.33 71.4498C136.88 71.2798 137.44 71.0999 137.99 70.8999C137.18 73.9799 136.47 77.0898 135.85 80.2098C135.23 83.3298 134.68 86.7599 134.25 90.0499C133.82 93.3399 133.51 96.6099 133.25 99.8999C132.99 103.19 132.91 106.47 132.87 109.75C132.877 112.77 132.933 115.773 133.04 118.76Z" fill="#F2E4DF" stroke="#171247" stroke-miterlimit="10"></path>
    <path d="M123.25 120.11C122.37 119.99 121.5 119.86 120.63 119.71H120.38C116.864 119.095 113.383 118.297 109.95 117.32C108.71 116.98 107.48 116.61 106.26 116.22L106.02 116.15C104.43 115.64 102.84 115.15 101.27 114.54C101.8 110.07 102.14 105.54 102.58 101.1C103.09 95.89 103.7 90.67 104.58 85.51C105.05 82.89 105.58 80.28 106.3 77.7C106.93 75.33 107.72 73.04 108.58 70.7C109.032 69.3138 109.366 67.8921 109.58 66.45C109.91 64.59 110.16 62.73 110.4 60.86C110.68 58.5933 110.92 56.32 111.12 54.04C111.3 55.04 111.51 55.97 111.77 56.92C112.39 59.2589 113.265 61.5225 114.38 63.67C115.386 65.6104 116.625 67.4205 118.07 69.0601C119.356 70.5281 120.836 71.8133 122.47 72.88C122.85 73.12 123.25 73.3499 123.65 73.5699C123.661 73.5753 123.673 73.578 123.685 73.578C123.697 73.578 123.709 73.5753 123.72 73.5699C124.46 73.5699 125.21 73.57 125.96 73.51C126.87 73.44 127.78 73.34 128.68 73.2C129.73 73.05 130.76 72.86 131.79 72.63C132.82 72.4 134.05 72.11 135.17 71.79L136.05 71.52C133.989 79.4902 132.571 87.613 131.81 95.8101C131.053 104.091 130.869 112.414 131.26 120.72C128.58 120.693 125.904 120.489 123.25 120.11Z" fill="white" stroke="#171247" stroke-miterlimit="10"></path>
    <path d="M142.37 77.5001C141.83 81.6501 141.21 85.7801 140.93 89.9601C140.67 93.8601 140.71 97.7801 140.73 101.7C140.73 105.27 140.86 108.85 141.07 112.42C141.13 113.46 141.2 114.5 141.28 115.54C141.28 115.85 141.33 116.17 141.36 116.48C141.35 116.617 141.35 116.754 141.36 116.89L140.36 117.23L140.1 117.31C138.31 117.956 136.451 118.392 134.56 118.61L133.3 118.71C133.21 116.12 133.16 113.52 133.17 110.92C133.17 107.66 133.29 104.41 133.49 101.16C133.69 97.9102 133.98 94.6502 134.37 91.4102C134.76 88.1702 135.27 84.8701 135.88 81.6201C136.49 78.3701 137.23 75.0201 138.06 71.7601C138.14 71.4401 138.23 71.1201 138.31 70.7601L138.78 70.5901C139.98 70.1501 141.17 69.6601 142.33 69.1201L143.33 68.6201C143.03 71.6401 142.75 74.5901 142.37 77.5001Z" fill="white" stroke="#171247" stroke-miterlimit="10"></path>
    <path d="M150.95 71.4302C150.95 71.5202 150.95 71.6101 150.95 71.7101C150.914 72.3935 150.776 73.0676 150.54 73.7101C150.524 73.7711 150.497 73.8287 150.46 73.8801C150.46 73.8801 150.37 73.8801 150.32 73.8801H150.04C149.73 73.8801 149.41 73.9401 149.04 73.9601C148.4 73.9601 147.76 74.0201 147.12 74.0201C145.714 73.9798 144.307 74.0399 142.91 74.2001L143.54 68.5502C144.29 68.1702 145.02 67.7701 145.74 67.3501C146.3 67.0301 146.85 66.6801 147.39 66.3501C147.568 66.2706 147.723 66.1467 147.84 65.9901V65.9302H150.76H151.39C151.247 66.7639 151.153 67.6053 151.11 68.4501C151.12 69.5001 151.07 70.5002 150.95 71.4302Z" fill="white" stroke="#171247" stroke-miterlimit="10"></path>
    <path d="M112.6 186C112.445 186.146 112.274 186.273 112.09 186.38C111.854 186.493 111.606 186.577 111.35 186.63C110.773 186.784 110.184 186.895 109.59 186.96C108.424 187.082 107.246 186.928 106.15 186.51C105.441 186.319 104.807 185.918 104.33 185.36C103.818 184.638 103.61 183.744 103.75 182.87C103.726 183.762 104.04 184.631 104.63 185.3C105.188 185.817 105.882 186.164 106.63 186.3C107.524 186.586 108.462 186.715 109.4 186.68C110.238 186.727 111.073 186.561 111.83 186.2C112.352 185.851 112.795 185.397 113.131 184.866C113.467 184.336 113.688 183.741 113.78 183.12C113.647 184.167 113.24 185.161 112.6 186Z" fill="#212059" stroke="#171247" stroke-width="0.5" stroke-miterlimit="10"></path>
    <path d="M150.31 182.29C150.626 182.518 150.882 182.819 151.056 183.167C151.23 183.515 151.318 183.901 151.31 184.29C151.17 185.08 150.4 185.49 149.69 185.88C148.808 186.294 147.853 186.531 146.88 186.58C145.935 186.695 144.979 186.675 144.04 186.52C143.061 186.343 142.119 186.005 141.25 185.52C140.765 185.262 140.306 184.957 139.88 184.61C139.524 184.301 139.189 183.966 138.88 183.61C138.457 183.045 137.959 182.541 137.4 182.11C137.066 181.905 136.701 181.753 136.32 181.66C136.14 181.66 135.94 181.66 135.76 181.66C135.573 181.637 135.388 181.593 135.21 181.53C134.538 181.297 133.907 180.96 133.34 180.53L132.91 180.19C132.771 180.1 132.652 179.981 132.562 179.841C132.473 179.702 132.414 179.544 132.39 179.38C132.259 178.046 132.313 176.699 132.55 175.38C132.301 176.498 132.342 177.662 132.67 178.76C132.828 179.425 133.2 180.019 133.73 180.45C134.11 180.71 134.27 180.64 135.56 181.23L136.42 181.64C136.848 181.838 137.266 182.058 137.67 182.3C138.061 182.556 138.418 182.862 138.73 183.21C138.806 183.295 138.876 183.385 138.94 183.48C139.016 183.583 139.099 183.68 139.19 183.77C139.4 183.98 139.61 184.17 139.83 184.36C140.539 184.967 141.348 185.447 142.22 185.78C144.579 186.57 147.139 186.513 149.46 185.62C149.679 185.502 149.89 185.368 150.09 185.22C150.371 185.081 150.604 184.862 150.76 184.59C150.937 184.208 150.988 183.78 150.907 183.367C150.827 182.954 150.618 182.577 150.31 182.29Z" fill="#212059" stroke="#171247" stroke-width="0.5" stroke-miterlimit="10"></path>
    <path d="M189.06 190.5V104.81H194.3C194.235 105.334 194.204 105.862 194.21 106.39V190.5H189.31H189.06Z" fill="#171247"></path>
    <path d="M240.73 190.5V105.36C240.73 105.18 240.73 105 240.73 104.81H245.95C245.893 105.335 245.866 105.862 245.87 106.39V190.5H240.97H240.73Z" fill="#171247"></path>
  </g>
  <defs>
    <clipPath id="clip0_8_5">
      <rect width="355.99" height="190.5" fill="white"></rect>
    </clipPath>
  </defs>
</svg>
